#N canvas 608 115 450 300 10;
#X obj 87 26 gemhead;
#X obj 313 63 gemwin;
#X msg 336 39 0 \, destroy;
#X msg 312 17 dimen 800 600 \, create \, 1;
#X obj 87 122 pix_texture;
#X obj 88 164 rectangle 5.333 4;
#X obj 298 152 netreceive 7000;
#X obj 300 175 route /img;
#X obj 306 240 print;
#X obj 49 35 tgl 15 0 empty empty empty 17 7 0 10 -262144 -1 -1 0 1
;
#X connect 0 0 4 0;
#X connect 2 0 1 0;
#X connect 3 0 1 0;
#X connect 4 0 5 0;
#X connect 6 0 7 0;
#X connect 9 0 0 0;
