#N canvas 16 82 452 272 10;
#X obj 16 142 tgl 50 0 liga liga-r LIGA 0 16 0 20 -4034 -1 -1 1 1;
#X obj 11 9 cnv 15 240 120 empty empty empty 20 12 0 14 -233017 -66577
0;
#X obj 16 19 tgl 100 0 grava empty rec 17 16 0 20 -258113 -4160 -4034
0 1;
#X obj 137 19 bng 100 250 50 0 clear empty clear 17 40 0 20 -203904
-1 -1;
#X obj 267 73 cnv 15 160 180 empty empty empty 20 12 0 14 -228856 -66577
0;
#N canvas 441 89 799 657 patch 1;
#X obj 167 131 gemwin;
#X msg 120 103 create;
#X msg 179 102 destroy;
#X obj 134 129 tgl 15 0 empty empty empty 17 7 0 10 -262144 -1 -1 1
1;
#X obj 45 200 gemhead;
#X obj 44 284 pix_video;
#X obj 44 317 pix_rgba;
#X msg 166 4 dimen 800 600;
#X obj 61 626 rectangle 5.333 4;
#X obj 61 601 pix_texture;
#X obj 39 411 t a a;
#X obj 139 432 pix_separator;
#X obj 61 575 pix_separator;
#X obj 37 391 pix_flip;
#X msg 68 366 horizontal;
#X obj 140 458 s IMAGE;
#X obj 33 18 loadbang;
#X obj 67 72 s init;
#X obj 68 343 r init;
#X obj 67 49 bng 15 250 50 0 empty empty empty 17 7 0 10 -262144 -1
-1;
#X msg 29 126 \; pd dsp \$1;
#X obj 29 105 tgl 15 0 empty empty empty 17 7 0 10 -262144 -1 -1 1
1;
#X msg 30 82 1;
#X obj 105 41 t b b b b;
#X msg 96 127 1;
#X obj 45 245 alpha;
#X floatatom 432 42 5 0 0 0 - - -, f 5;
#X obj 432 65 s THR;
#X obj 368 18 tgl 45 0 empty liga empty 17 7 0 10 -4034 -1 -1 1 1;
#X obj 368 98 s STORE;
#X obj 432 19 bng 15 250 50 0 empty empty empty 17 7 0 10 -262144 -1
-1;
#X obj 264 11 r init;
#X obj 368 73 == 0;
#X obj 61 547 colorRGB;
#X obj 106 503 r miximg;
#X obj 106 525 expr 1 -$f1;
#X msg 180 48 lighting \$1;
#X obj 180 23 tgl 15 0 empty empty empty 17 7 0 10 -262144 -1 -1 0
1;
#X obj 235 110 gemhead;
#X obj 235 134 world_light;
#X obj 89 221 r dev2;
#X msg 89 248 device \$1;
#X obj 466 478 cnv 15 300 150 empty empty empty 20 12 0 14 -260097
-66577 0;
#N canvas 216 115 1119 652 5effect 0;
#X obj 70 212 pix_image;
#X obj 40 585 rectangle 5.333 4;
#X obj 42 560 pix_texture;
#X obj 66 242 pix_separator;
#X obj 63 382 rotateXYZ;
#X obj 52 440 translateXYZ;
#X floatatom 119 416 5 0 0 0 - - -, f 5;
#X msg 29 156 open 5ultimate_red.jpg;
#X obj 64 273 alpha;
#X obj 69 353 colorRGB;
#X obj 166 260 vsl 15 60 0 1 0 0 miximg empty empty 0 -9 0 10 -262144
-1 -1 0 1;
#X floatatom 8 392 5 0 0 0 - - -, f 5;
#X floatatom 143 382 5 0 0 0 - - -, f 5;
#X obj 167 348 < 0.01;
#X obj 181 382 s showSq;
#N canvas 1 55 450 300 tremble 0;
#X obj 145 254 outlet;
#X obj 222 256 outlet;
#X obj 157 112 random 100;
#X obj 240 113 random 100;
#X obj 206 42 r IMAGE;
#X obj 220 74 t b;
#X msg 332 79 100;
#X obj 239 150 / 1000;
#X obj 158 149 / 1000;
#X obj 158 182 - 0.05;
#X obj 236 189 - 0.05;
#X connect 2 0 8 0;
#X connect 3 0 7 0;
#X connect 4 0 5 0;
#X connect 5 0 2 0;
#X connect 5 0 3 0;
#X connect 6 0 3 1;
#X connect 6 0 2 1;
#X connect 7 0 10 0;
#X connect 8 0 9 0;
#X connect 9 0 0 0;
#X connect 10 0 1 0;
#X restore 163 439 pd tremble;
#X obj 191 125 gemhead;
#X obj 276 423 part_head;
#X msg 326 402 speed \$1;
#X obj 283 464 part_source 1 point;
#X obj 284 494 part_velocity sphere 0 0.1 0.2 0.3;
#X obj 283 535 part_size;
#X floatatom 366 528 5 0 0 0 - - -, f 5;
#X obj 289 569 part_killold 20;
#X obj 622 93 part_info;
#X obj 622 134 separator;
#X obj 622 182 scale 1 0 0 0;
#X obj 622 261 rotateXYZ;
#X obj 745 158 unpack f f f;
#X obj 727 200 * 360;
#X obj 769 199 * 360;
#X obj 810 199 * 360;
#X text 702 137 velocity data > rotation;
#X obj 622 294 translate 1 0 0 0;
#X obj 622 426 pix_image;
#X obj 608 542 pix_texture;
#X obj 608 569 rectangle 4 3;
#X floatatom 402 569 5 0 0 0 - - -, f 5;
#X obj 288 597 send pt;
#X obj 622 60 receive pt;
#X obj 191 103 tgl 15 0 empty empty empty 17 7 0 10 -262144 -1 -1 0
1;
#X msg 648 341 open 5ultimate_red.jpg;
#X obj 299 235 rotateXYZ;
#X floatatom 355 210 5 0 0 0 - - -, f 5;
#X obj 416 256 line;
#X msg 418 219 \$1 100;
#X obj 435 345 max 0.02;
#X obj 704 317 r init;
#X obj 191 151 demux . .;
#X obj 248 120 tgl 15 0 empty empty empty 17 7 0 10 -262144 -1 -1 0
1;
#X obj 135 11 inlet;
#X obj 228 13 inlet;
#X obj 37 49 r init;
#X floatatom 205 316 5 0 0 0 - - -, f 5;
#X obj 207 279 line;
#X msg 249 223 1 1000;
#X msg 207 224 0 3000;
#X obj 324 48 bng 15 250 50 0 empty empty start 17 7 0 10 -262144 -1
-1;
#X obj 320 73 t b b;
#X msg 347 98 0;
#X obj 410 57 bng 15 250 50 0 empty empty over 17 7 0 10 -262144 -1
-1;
#X obj 409 83 t b b;
#X msg 431 131 1;
#X obj 314 12 inlet;
#X obj 408 15 inlet;
#X floatatom 520 231 5 0 0 0 - - -, f 5;
#X obj 511 207 spigot;
#X obj 537 181 tgl 15 0 empty empty empty 17 7 0 10 -262144 -1 -1 0
1;
#X obj 435 323 expr ($f1-$f2)/10;
#X obj 582 244 vsl 15 70 0 127 0 0 empty empty empty 0 -9 0 10 -262144
-1 -1 3260 1;
#X floatatom 561 331 5 0 0 0 - - -, f 5;
#X obj 409 276 demux . .;
#X obj 474 276 tgl 15 0 empty empty empty 17 7 0 10 -262144 -1 -1 1
1;
#X obj 326 329 min 4;
#X obj 325 347 max 0.03;
#X obj 326 310 expr $f1-$f2;
#X obj 525 274 r init;
#X msg 493 273 1;
#X obj 505 157 r checkSoundIn;
#X obj 492 248 s SoundIn;
#X msg 646 366 open FiveLogo_Tourn.jpg;
#X msg 27 182 open FiveLogo_Tourn.jpg;
#X obj 431 107 del 2000;
#X obj 876 233 gemhead 52;
#X floatatom 871 562 5 0 0 0 - - -, f 5;
#X obj 876 265 alpha;
#X floatatom 893 300 5 0 0 0 - - -, f 5;
#X floatatom 928 299 5 0 0 0 - - -, f 5;
#X floatatom 964 298 5 0 0 0 - - -, f 5;
#X floatatom 998 299 5 0 1 0 - - -, f 5;
#X floatatom 907 373 5 0 0 0 - - -, f 5;
#X floatatom 952 372 5 0 0 0 - - -, f 5;
#X obj 877 332 colorRGB 0.2 0.6 1 0.5;
#X obj 822 584 text3d;
#X obj 876 204 tgl 15 0 empty empty empty 17 7 0 10 -262144 -1 -1 0
1;
#X msg 590 217 60;
#X text 518 347 SET NOISE VALUE;
#X msg 17 105 open sunset_from_air.jpg;
#X msg 662 387 open sunset_from_air.jpg;
#X obj 570 17 inlet;
#X msg 873 581 6;
#X obj 904 582 r init;
#X obj 874 405 translateXYZ -1.8 3.5 0;
#X msg 829 525 text dance touch play them...;
#X obj 395 398 line;
#X msg 402 372 \$1 200;
#X obj 418 168 r VolIn;
#X obj 895 105 r liga;
#X obj 901 142 == 0;
#X connect 0 0 3 0;
#X connect 2 0 1 0;
#X connect 3 0 8 0;
#X connect 4 0 5 0;
#X connect 5 0 2 0;
#X connect 6 0 5 3;
#X connect 7 0 0 0;
#X connect 8 0 9 0;
#X connect 9 0 4 0;
#X connect 10 0 9 4;
#X connect 10 0 13 0;
#X connect 10 0 53 0;
#X connect 11 0 4 2;
#X connect 13 0 12 0;
#X connect 13 0 14 0;
#X connect 15 0 5 1;
#X connect 15 1 5 2;
#X connect 16 0 48 0;
#X connect 17 0 19 0;
#X connect 18 0 17 0;
#X connect 19 0 20 0;
#X connect 20 0 21 0;
#X connect 21 0 23 0;
#X connect 22 0 21 1;
#X connect 23 0 38 0;
#X connect 24 0 25 0;
#X connect 24 2 33 2;
#X connect 24 4 28 0;
#X connect 24 5 26 2;
#X connect 25 0 26 0;
#X connect 26 0 27 0;
#X connect 27 0 33 0;
#X connect 28 0 29 0;
#X connect 28 1 30 0;
#X connect 28 2 31 0;
#X connect 29 0 27 1;
#X connect 30 0 27 2;
#X connect 31 0 27 3;
#X connect 33 0 34 0;
#X connect 34 0 35 0;
#X connect 35 0 36 0;
#X connect 37 0 23 1;
#X connect 39 0 24 0;
#X connect 40 0 16 0;
#X connect 41 0 34 0;
#X connect 42 0 17 0;
#X connect 43 0 42 3;
#X connect 44 0 71 0;
#X connect 45 0 44 0;
#X connect 46 0 105 0;
#X connect 47 0 98 0;
#X connect 48 0 0 0;
#X connect 48 1 42 0;
#X connect 49 0 48 1;
#X connect 50 0 40 0;
#X connect 51 0 49 0;
#X connect 52 0 97 0;
#X connect 54 0 10 0;
#X connect 55 0 54 0;
#X connect 56 0 54 0;
#X connect 57 0 58 0;
#X connect 58 0 56 0;
#X connect 58 1 59 0;
#X connect 59 0 49 0;
#X connect 60 0 61 0;
#X connect 61 0 55 0;
#X connect 61 1 82 0;
#X connect 62 0 49 0;
#X connect 63 0 57 0;
#X connect 64 0 60 0;
#X connect 66 0 65 0;
#X connect 66 0 79 0;
#X connect 67 0 66 1;
#X connect 68 0 46 0;
#X connect 69 0 68 1;
#X connect 69 0 70 0;
#X connect 69 0 75 1;
#X connect 71 0 75 0;
#X connect 71 1 68 0;
#X connect 72 0 71 1;
#X connect 73 0 74 0;
#X connect 74 0 105 0;
#X connect 75 0 73 0;
#X connect 76 0 77 0;
#X connect 76 0 95 0;
#X connect 77 0 72 0;
#X connect 78 0 67 0;
#X connect 80 0 34 0;
#X connect 81 0 0 0;
#X connect 82 0 62 0;
#X connect 83 0 85 0;
#X connect 84 0 93 1;
#X connect 85 0 92 0;
#X connect 86 0 92 1;
#X connect 87 0 92 2;
#X connect 88 0 92 3;
#X connect 89 0 92 4;
#X connect 90 0 102 1;
#X connect 91 0 102 2;
#X connect 92 0 102 0;
#X connect 94 0 83 0;
#X connect 95 0 69 0;
#X connect 97 0 0 0;
#X connect 98 0 34 0;
#X connect 99 0 69 0;
#X connect 100 0 84 0;
#X connect 101 0 100 0;
#X connect 101 0 103 0;
#X connect 102 0 93 0;
#X connect 103 0 93 0;
#X connect 104 0 18 0;
#X connect 105 0 104 0;
#X connect 106 0 66 0;
#X connect 106 0 45 0;
#X connect 107 0 108 0;
#X connect 108 0 94 0;
#X restore 563 601 pd 5effect;
#X obj 515 497 r init;
#X msg 515 520 1;
#X obj 483 521 tgl 15 0 empty empty empty 17 7 0 10 -262144 -1 -1 0
1;
#X obj 565 519 r start;
#X obj 624 522 r over;
#X obj 676 542 vsl 15 70 0 127 0 0 empty empty NoiseINthresh 0 -9 0
10 -262144 -1 -1 0 1;
#X msg 149 220 0;
#N canvas 434 151 497 496 win 0;
#X obj 185 60 gemhead 60;
#X obj 185 16 r init;
#X msg 185 38 0;
#X obj 50 21 r win;
#X obj 149 456 text3d;
#X obj 172 402 colorRGB;
#X obj 251 234 random 360;
#X obj 251 259 / 360;
#X obj 240 290 pack f 1 1;
#X obj 241 316 hsv2rgb;
#X obj 231 340 unpack f f f;
#X msg 139 41 1;
#X obj 68 58 t b b b;
#X msg 63 394 text yeah!!!;
#X obj 80 146 line;
#X obj 67 364 r init;
#X obj 36 94 delay 5000;
#X obj 382 91 r win;
#X obj 144 168 separator;
#N canvas 407 162 552 474 vidSnapWrite 1;
#X obj 56 168 gemhead 60;
#X obj 120 224 spigot;
#X obj 167 224 tgl 15 0 empty empty empty 0 -6 0 8 -262144 -1 -1 0
1;
#X obj 63 198 t a b;
#X obj 120 244 t b b;
#X msg 211 225 0;
#X obj 63 306 pix_snap 0 0 800 600;
#X obj 66 386 pix_texture;
#X obj 400 273 time . . .;
#X msg 392 353 file \$1_\$2_\$3.tiff 99;
#X obj 379 208 bng 15 250 50 0 empty empty empty 17 7 0 10 -262144
-1 -1;
#X obj 400 318 pack f f f;
#X obj 380 399 pix_write 0 0 800 600;
#X obj 380 232 t b b;
#X obj 291 252 gemhead 60;
#X obj 174 6 inlet;
#X obj 67 419 rectangle 5.333 4;
#X obj 62 362 translateXYZ 0 0 0;
#X msg 139 108 0;
#X msg 122 53 1;
#X msg 169 196 1;
#X msg 234 116 1;
#X obj 166 33 bng 15 250 50 0 empty empty empty 17 7 0 10 -262144 -1
-1;
#X obj 193 31 t b b b b;
#X obj 138 80 delay 5000;
#X obj 33 94 r init;
#X msg 37 118 0;
#X obj 64 337 separator;
#X obj 193 169 delay 200;
#X obj 306 173 delay 200;
#X text 192 145 delay para tirar imagem só depois do flash ter funcionado
;
#X connect 0 0 3 0;
#X connect 1 0 4 0;
#X connect 2 0 1 1;
#X connect 3 0 6 0;
#X connect 3 1 1 0;
#X connect 4 0 6 0;
#X connect 4 1 5 0;
#X connect 5 0 2 0;
#X connect 6 0 27 0;
#X connect 7 0 16 0;
#X connect 8 0 11 0;
#X connect 8 1 11 1;
#X connect 8 2 11 2;
#X connect 9 0 12 0;
#X connect 10 0 13 0;
#X connect 11 0 9 0;
#X connect 13 0 12 0;
#X connect 13 1 8 0;
#X connect 14 0 12 0;
#X connect 15 0 23 0;
#X connect 17 0 7 0;
#X connect 18 0 0 0;
#X connect 19 0 0 0;
#X connect 20 0 2 0;
#X connect 21 0 0 0;
#X connect 22 0 23 0;
#X connect 23 0 24 0;
#X connect 23 1 28 0;
#X connect 23 2 21 0;
#X connect 23 3 29 0;
#X connect 24 0 18 0;
#X connect 25 0 26 0;
#X connect 26 0 0 0;
#X connect 27 0 17 0;
#X connect 28 0 20 0;
#X connect 29 0 10 0;
#X restore 374 168 pd vidSnapWrite;
#X obj 172 95 t a b;
#X obj 360 92 bng 15 250 50 0 empty empty empty 17 7 0 10 -262144 -1
-1;
#X obj 405 132 tgl 15 0 empty empty empty 17 7 0 10 -262144 -1 -1 1
1;
#X obj 442 216 r win;
#X obj 348 268 gemhead 60;
#X obj 347 333 separator;
#X obj 345 450 rectangle 5.33 4;
#X obj 347 402 colorRGB;
#X obj 445 374 line;
#X msg 463 324 1;
#X obj 342 373 alpha;
#X obj 438 279 t b b;
#X obj 433 243 bng 15 250 50 0 empty empty empty 17 7 0 10 -262144
-1 -1;
#X obj 338 31 inlet;
#X obj 340 61 tgl 15 0 empty empty empty 17 7 0 10 -262144 -1 -1 0
1;
#X obj 387 299 tgl 15 0 empty empty empty 17 7 0 10 -262144 -1 -1 0
1;
#X obj 372 212 r init;
#X msg 417 326 0 100;
#X obj 267 105 tgl 15 0 empty empty empty 17 7 0 10 -262144 -1 -1 0
1;
#X obj 266 130 sel 1;
#X msg 43 117 0 3000;
#X msg 102 99 1 300;
#X obj 270 34 r liga;
#X connect 0 0 20 0;
#X connect 1 0 2 0;
#X connect 2 0 0 0;
#X connect 3 0 12 0;
#X connect 5 0 4 0;
#X connect 6 0 7 0;
#X connect 7 0 8 0;
#X connect 8 0 9 0;
#X connect 9 0 10 0;
#X connect 10 0 5 1;
#X connect 10 1 5 2;
#X connect 10 2 5 3;
#X connect 11 0 0 0;
#X connect 12 0 16 0;
#X connect 12 1 41 0;
#X connect 12 2 11 0;
#X connect 13 0 4 0;
#X connect 14 0 5 4;
#X connect 15 0 13 0;
#X connect 16 0 40 0;
#X connect 17 0 19 0;
#X connect 17 0 22 0;
#X connect 18 0 5 0;
#X connect 20 0 18 0;
#X connect 20 1 6 0;
#X connect 21 0 19 0;
#X connect 23 0 32 0;
#X connect 24 0 25 0;
#X connect 25 0 30 0;
#X connect 27 0 26 0;
#X connect 28 0 27 4;
#X connect 29 0 28 0;
#X connect 30 0 27 0;
#X connect 31 0 35 0;
#X connect 31 0 37 0;
#X connect 31 1 29 0;
#X connect 32 0 31 0;
#X connect 33 0 34 0;
#X connect 34 0 24 0;
#X connect 36 0 32 0;
#X connect 37 0 28 0;
#X connect 38 0 39 0;
#X connect 39 1 0 0;
#X connect 40 0 14 0;
#X connect 41 0 14 0;
#X restore 697 431 pd win;
#X obj 45 177 r MainImg;
#X obj 106 15 bng 15 250 50 0 empty empty empty 17 7 0 10 -262144 -1
-1;
#X obj 666 111 r start;
#X obj 692 385 r flash;
#X obj 717 407 tgl 15 0 empty empty empty 17 7 0 10 -262144 -1 -1 0
1;
#X msg 657 250 \; liga-r 1 \;;
#X msg 264 38 \; liga 0 \; defBang bang \; THR 0.2 \;;
#X obj 657 223 delay 5000;
#X obj 676 285 r over;
#X msg 658 314 \; liga-r 0 \;;
#X msg 680 137 \; sampleN 0 \; sampleN 1 \; sampleN 2 \; sampleN 3
\;;
#N canvas 1 173 446 183 TODO 0;
#X text 38 40 presence detector \, when it is not detecting anything
it turns off after 2min \;;
#X restore 498 18 pd TODO;
#N canvas 684 96 646 300 Android_conn 0;
#X obj 56 58 netreceive 8000;
#X obj 66 99 print;
#X obj 54 193 s start-r;
#X obj 54 218 s over-r;
#X obj 56 168 s liga-r;
#X obj 121 218 s defSampN-r;
#X obj 223 180 s dev2-r;
#X obj 494 104 netsend;
#X msg 475 23 connect localhost 8001;
#X msg 504 53 disconnect;
#X obj 498 148 tgl 15 0 empty empty empty 17 7 0 10 -262144 -1 -1 0
1;
#X obj 222 214 s textOn-r;
#X obj 286 179 s THR-r;
#X obj 343 202 s checkSoundIn-r;
#X obj 124 193 s defBang-r;
#X obj 37 125 route /liga /start /over /defBang /defSampN /dev2 /textOn
/THR /checkSoundIn;
#X floatatom 316 274 5 0 0 0 - - -, f 5;
#X connect 0 0 15 0;
#X connect 7 0 10 0;
#X connect 8 0 7 0;
#X connect 9 0 7 0;
#X connect 15 0 4 0;
#X connect 15 1 2 0;
#X connect 15 2 3 0;
#X connect 15 3 14 0;
#X connect 15 4 5 0;
#X connect 15 4 16 0;
#X connect 15 5 6 0;
#X connect 15 6 11 0;
#X connect 15 7 12 0;
#X connect 15 8 13 0;
#X restore 610 26 pd Android_conn;
#N canvas 341 86 691 681 netlink_audio 0;
#X obj 15 628 netsend;
#X msg 30 45 connect localhost 8900;
#X msg 43 71 disconnect;
#X obj 15 657 tgl 15 0 YA empty empty 17 7 0 10 -262144 -1 -1 1 1;
#X obj 69 96 r bangSample0;
#X obj 104 152 r bangSample1;
#X obj 127 212 r bangSample2;
#X obj 139 269 r bangSample3;
#X msg 69 120 send /bangSample0;
#X msg 104 175 send /bangSample1;
#X msg 138 293 send /bangSample3;
#X msg 126 238 send /bangSample2;
#X obj 185 328 r defBang;
#X msg 189 353 send /defBang;
#X obj 211 447 r start;
#X msg 211 472 send /start;
#X obj 211 509 r over;
#X msg 212 534 send /over;
#X obj 72 15 tgl 15 0 empty empty empty 17 7 0 10 -262144 -1 -1 1 1
;
#X obj 26 14 r conn;
#X obj 100 14 sel 1 0;
#X obj 191 390 r defSampN;
#X msg 195 415 send /defSampN \$1;
#X obj 318 28 netreceive 8901;
#X obj 320 91 s VolIn;
#X obj 378 203 s 0-bolaOn \$1;
#X obj 489 119 s 3-bolaOn \$1;
#X obj 426 149 s 2-bolaOn \$1;
#X obj 395 178 s 1-bolaOn \$1;
#X obj 318 59 route /VolIn /0-bolaOn /1-bolaOn /2-bolaOn /3-bolaOn
/over-silence;
#X obj 590 117 s over-silence;
#X connect 0 0 3 0;
#X connect 1 0 0 0;
#X connect 2 0 0 0;
#X connect 4 0 8 0;
#X connect 5 0 9 0;
#X connect 6 0 11 0;
#X connect 7 0 10 0;
#X connect 8 0 0 0;
#X connect 9 0 0 0;
#X connect 10 0 0 0;
#X connect 11 0 0 0;
#X connect 12 0 13 0;
#X connect 13 0 0 0;
#X connect 14 0 15 0;
#X connect 15 0 0 0;
#X connect 16 0 17 0;
#X connect 17 0 0 0;
#X connect 18 0 20 0;
#X connect 19 0 18 0;
#X connect 20 0 1 0;
#X connect 20 1 2 0;
#X connect 21 0 22 0;
#X connect 22 0 0 0;
#X connect 23 0 29 0;
#X connect 29 0 24 0;
#X connect 29 1 25 0;
#X connect 29 2 28 0;
#X connect 29 3 27 0;
#X connect 29 4 26 0;
#X connect 29 5 30 0;
#X restore 609 56 pd netlink_audio;
#X obj 501 395 cnv 15 100 60 empty empty empty 20 12 0 14 -233017 -66577
0;
#N canvas 254 169 777 583 sampleCoords 0;
#X floatatom 246 38 5 0 0 0 - - -, f 5;
#X obj 210 15 r sampleN;
#X obj 353 92 random 10;
#X obj 439 90 random 10;
#X obj 353 115 / 10;
#X obj 439 115 / 10;
#X msg 44 328 \; \$1-X \$2 \; \$1-Y \$3 \;;
#X obj 44 284 pack f f f;
#X obj 460 14 table Xcoor 4;
#X obj 461 40 table Ycoor 4;
#X obj 583 144 tabwrite Xcoor;
#X obj 237 339 tabread Xcoor;
#X obj 237 263 f;
#X obj 237 285 + 1;
#X obj 237 238 until;
#X obj 600 56 tabwrite Ycoor;
#X obj 237 308 mod 4;
#X msg 238 216 4;
#X obj 237 432 ==;
#X obj 252 402 f;
#X obj 237 454 sel 1;
#X obj 681 32 r sampleN;
#X obj 650 119 r sampleN;
#X obj 44 74 r sampleN;
#X obj 97 256 f;
#X obj 66 256 f;
#X obj 351 145 s Xcoor-prop;
#X obj 439 143 s Ycoor-prop;
#X obj 600 30 r Ycoor-prop;
#X obj 591 97 r Xcoor-prop;
#X obj 104 170 r Xcoor-prop;
#X obj 136 209 r Ycoor-prop;
#X obj 66 156 t b b;
#X obj 264 480 s SetCoord;
#X obj 66 134 r SetCoord;
#X obj 267 367 r Xcoor-prop;
#X obj 361 44 t b b;
#X obj 357 9 r GeraCoord;
#X obj 210 60 t b b;
#X obj 236 95 s GeraCoord;
#X obj 212 123 s TestaCoord;
#X obj 238 189 r TestaCoord;
#X obj 476 312 f;
#X obj 476 334 + 1;
#X obj 476 287 until;
#X obj 476 357 mod 4;
#X msg 477 265 4;
#X obj 476 481 ==;
#X obj 491 451 f;
#X obj 476 503 sel 1;
#X obj 503 529 s SetCoord;
#X obj 237 516 s TestaCoord-Y;
#X obj 477 239 r TestaCoord-Y;
#X obj 476 388 tabread Ycoor;
#X obj 506 416 r Ycoor-prop;
#X obj 476 553 s GeraCoord;
#X connect 1 0 0 0;
#X connect 1 0 38 0;
#X connect 2 0 4 0;
#X connect 3 0 5 0;
#X connect 4 0 26 0;
#X connect 5 0 27 0;
#X connect 7 0 6 0;
#X connect 11 0 18 0;
#X connect 12 0 13 0;
#X connect 13 0 12 1;
#X connect 13 0 16 0;
#X connect 14 0 12 0;
#X connect 16 0 11 0;
#X connect 17 0 14 0;
#X connect 18 0 20 0;
#X connect 19 0 18 1;
#X connect 20 0 51 0;
#X connect 20 1 33 0;
#X connect 21 0 15 1;
#X connect 22 0 10 1;
#X connect 23 0 7 0;
#X connect 24 0 7 2;
#X connect 25 0 7 1;
#X connect 28 0 15 0;
#X connect 29 0 10 0;
#X connect 30 0 25 1;
#X connect 31 0 24 1;
#X connect 32 0 25 0;
#X connect 32 1 24 0;
#X connect 34 0 32 0;
#X connect 35 0 19 1;
#X connect 36 0 2 0;
#X connect 36 1 3 0;
#X connect 37 0 36 0;
#X connect 38 0 40 0;
#X connect 38 1 39 0;
#X connect 41 0 17 0;
#X connect 42 0 43 0;
#X connect 43 0 42 1;
#X connect 43 0 45 0;
#X connect 44 0 42 0;
#X connect 45 0 53 0;
#X connect 46 0 44 0;
#X connect 47 0 49 0;
#X connect 48 0 47 1;
#X connect 49 0 55 0;
#X connect 49 1 50 0;
#X connect 52 0 46 0;
#X connect 53 0 47 0;
#X connect 54 0 48 1;
#X restore 505 433 pd sampleCoords;
#X obj 502 306 cnv 15 100 60 empty empty empty 20 12 0 14 -232576 -66577
0;
#N canvas 1 58 450 300 sound_trigger 0;
#X obj 39 11 adc~;
#X obj 40 35 env~;
#X floatatom 24 91 5 0 0 0 - - -, f 5;
#X obj 116 59 vsl 15 128 0 127 0 0 empty empty empty 0 -9 0 10 -262144
-1 -1 0 1;
#X obj 146 59 vsl 15 128 0 127 0 0 empty empty empty 0 -9 0 10 -262144
-1 -1 0 1;
#X obj 129 208 >;
#X obj 106 207 tgl 15 0 empty empty empty 17 7 0 10 -262144 -1 -1 0
1;
#X obj 129 234 sel 1;
#X obj 198 161 s start-r;
#X obj 251 217 s over-r;
#X obj 229 60 t b b b;
#X obj 370 150 delay 5000;
#X obj 273 136 delay 30000;
#X obj 270 182 t b b;
#X msg 374 182 \; liga-r 1;
#X msg 310 221 \; liga-r 0;
#X obj 78 35 spigot;
#X obj 130 36 tgl 15 0 empty empty empty 17 7 0 10 -262144 -1 -1 0
1;
#X obj 130 13 inlet;
#X connect 0 0 1 0;
#X connect 0 1 1 0;
#X connect 1 0 2 0;
#X connect 1 0 16 0;
#X connect 3 0 5 0;
#X connect 4 0 5 1;
#X connect 5 0 6 0;
#X connect 5 0 7 0;
#X connect 7 0 10 0;
#X connect 10 0 8 0;
#X connect 10 1 12 0;
#X connect 10 2 11 0;
#X connect 11 0 14 0;
#X connect 12 0 13 0;
#X connect 13 0 9 0;
#X connect 13 1 15 0;
#X connect 16 0 3 0;
#X connect 17 0 16 1;
#X connect 18 0 17 0;
#X restore 502 347 pd sound_trigger;
#N canvas 810 145 318 494 presence_det 0;
#X obj 36 33 r IMAGE;
#X obj 38 110 pix_movement;
#X obj 38 185 pix_blob;
#X msg 60 160 4;
#X floatatom 99 185 10 0 0 0 - - -, f 10;
#X obj 38 78 spigot;
#X obj 91 81 tgl 15 0 empty empty empty 17 7 0 10 -262144 -1 -1 0 1
;
#X obj 60 137 loadbang;
#X obj 92 269 t b b;
#X msg 94 308 0;
#X obj 92 412 s CheckImg;
#X obj 136 310 s start;
#X obj 119 81 r CheckImg;
#X obj 81 237 sel 1;
#X obj 83 211 > 0.005;
#X obj 241 31 r liga;
#X obj 241 55 == 0;
#X obj 225 82 s CheckImg-r;
#X connect 0 0 5 0;
#X connect 1 0 2 0;
#X connect 2 3 4 0;
#X connect 2 3 14 0;
#X connect 3 0 2 1;
#X connect 5 0 1 0;
#X connect 6 0 5 1;
#X connect 7 0 3 0;
#X connect 8 0 9 0;
#X connect 8 1 11 0;
#X connect 9 0 10 0;
#X connect 12 0 6 0;
#X connect 13 0 8 0;
#X connect 14 0 13 0;
#X connect 15 0 16 0;
#X connect 16 0 17 0;
#X restore 502 306 pd presence_det;
#X obj 503 330 tgl 15 0 empty empty empty 17 7 0 10 -262144 -1 -1 0
1;
#N canvas 493 146 538 436 order_detection 0;
#X obj 32 51 bng 15 250 50 0 empty empty empty 17 7 0 10 -262144 -1
-1;
#X obj 32 149 bng 15 250 50 0 empty empty empty 17 7 0 10 -262144 -1
-1;
#X msg 33 170 \; Bn 1 \;;
#X obj 31 227 bng 15 250 50 0 empty empty empty 17 7 0 10 -262144 -1
-1;
#X obj 35 309 bng 15 250 50 0 empty empty empty 17 7 0 10 -262144 -1
-1;
#X msg 38 335 \; Bn 3 \;;
#X msg 31 248 \; Bn 2 \;;
#X msg 32 74 \; Bn 0 \;;
#X obj 155 78 r Bn;
#X msg 207 380 \; state 0;
#X obj 229 79 r state;
#X floatatom 153 110 5 0 0 0 - - -, f 5;
#X floatatom 229 106 5 0 0 0 - - -, f 5;
#X obj 153 147 t f f;
#X obj 207 203 ==;
#X obj 265 237 + 1;
#X obj 226 275 f;
#X obj 207 236 sel 0 1;
#X msg 225 300 \; state \$1;
#X obj 140 249 ==;
#X obj 155 221 - 1;
#X obj 140 274 sel 0;
#X obj 229 146 t f f f f;
#X obj 315 182 sel 4;
#X obj 374 198 bng 15 250 50 0 empty empty empty 17 7 0 10 -262144
-1 -1;
#X floatatom 298 160 5 0 0 0 - - -, f 5;
#X obj 418 293 s win;
#X obj 367 325 s over-r;
#X obj 32 24 r bangSample0;
#X obj 32 116 r bangSample1;
#X obj 30 207 r bangSample2;
#X obj 34 286 r bangSample3;
#X obj 368 249 t b b b b;
#X obj 462 293 s liga-r;
#X obj 413 214 bng 15 250 50 0 empty empty empty 17 7 0 10 -262144
-1 -1;
#X msg 443 269 0;
#X connect 0 0 7 0;
#X connect 1 0 2 0;
#X connect 3 0 6 0;
#X connect 4 0 5 0;
#X connect 8 0 11 0;
#X connect 10 0 12 0;
#X connect 11 0 13 0;
#X connect 12 0 22 0;
#X connect 13 0 19 0;
#X connect 13 1 14 0;
#X connect 14 0 17 0;
#X connect 15 0 16 1;
#X connect 16 0 18 0;
#X connect 17 1 16 0;
#X connect 19 0 21 0;
#X connect 20 0 19 1;
#X connect 21 0 9 0;
#X connect 22 0 20 0;
#X connect 22 1 14 1;
#X connect 22 2 15 0;
#X connect 22 3 25 0;
#X connect 23 0 24 0;
#X connect 23 0 32 0;
#X connect 25 0 23 0;
#X connect 28 0 0 0;
#X connect 29 0 1 0;
#X connect 30 0 3 0;
#X connect 31 0 4 0;
#X connect 32 0 9 0;
#X connect 32 1 27 0;
#X connect 32 2 26 0;
#X connect 32 3 35 0;
#X connect 34 0 32 0;
#X connect 35 0 33 0;
#X restore 505 404 pd order_detection;
#X obj 451 135 cnv 15 180 80 empty empty empty 20 12 0 14 -261234 -66577
0;
#X obj 551 142 HotSpot-V 1;
#X obj 461 142 HotSpot-V 0;
#X obj 460 176 HotSpot-V 2;
#X obj 550 176 HotSpot-V 3;
#N canvas 1 54 450 300 record_samples 0;
#X obj 127 53 r grava;
#X obj 127 78 sel 1 0;
#X obj 244 113 f;
#X obj 276 113 + 1;
#X msg 285 152 0;
#X obj 244 152 sel 4;
#X obj 127 177 demux . . . .;
#X obj 146 103 t b b;
#X msg 173 130 0;
#X obj 149 214 s 1-grava;
#X obj 213 214 s 2-grava;
#X obj 278 214 s 3-grava;
#X obj 84 214 s 0-grava;
#X obj 327 179 s sampleN;
#X msg 127 129 1;
#X obj 244 65 r init;
#X msg 244 89 0;
#X obj 327 152 min 3;
#X connect 0 0 1 0;
#X connect 1 0 14 0;
#X connect 1 1 7 0;
#X connect 2 0 3 0;
#X connect 2 0 5 0;
#X connect 2 0 6 1;
#X connect 2 0 17 0;
#X connect 3 0 2 1;
#X connect 4 0 2 0;
#X connect 5 0 4 0;
#X connect 6 0 12 0;
#X connect 6 1 9 0;
#X connect 6 2 10 0;
#X connect 6 3 11 0;
#X connect 7 0 2 0;
#X connect 7 1 8 0;
#X connect 8 0 6 0;
#X connect 14 0 6 0;
#X connect 15 0 16 0;
#X connect 16 0 2 0;
#X connect 17 0 13 0;
#X restore 334 152 pd record_samples;
#N canvas 1 54 466 581 adjustIMGout 1;
#X obj 40 355 cnv 15 240 120 empty empty empty 20 12 0 14 -24198 -66577
0;
#X obj 39 454 pix_snap2tex;
#X obj 159 454 tgl 15 1 empty empty texture_on/off 20 7 0 8 -262144
-1 -1 1 1;
#X obj 70 415 spigot;
#X obj 116 415 t b f;
#X obj 102 396 tgl 15 0 empty empty empty 0 -6 0 8 -262144 -1 -1 1
1;
#X msg 158 407 0 0;
#X msg 158 431 256 256;
#X obj 39 395 t a b;
#X text 212 431 dimension;
#X text 186 409 offset;
#X text 94 369 drawn but before the square;
#X obj 62 362 bng 25 250 50 0 empty empty empty 0 -6 0 8 -262144 -1
-1;
#X text 92 356 SNAP! after the sphere is;
#X obj 39 311 gemhead 80;
#N canvas 1 54 450 300 ajusta_img 0;
#X obj 129 82 pix_separator;
#X obj 133 166 translateXYZ;
#X obj 130 231 rotateXYZ;
#X obj 119 30 inlet;
#X obj 120 262 outlet;
#X obj 167 205 r rotX;
#X obj 264 205 r rotZ;
#X obj 215 205 r rotY;
#X obj 162 132 r trsX;
#X obj 210 132 r trsY;
#X obj 259 132 r trsZ;
#X connect 0 0 1 0;
#X connect 1 0 2 0;
#X connect 2 0 4 0;
#X connect 3 0 0 0;
#X connect 5 0 2 1;
#X connect 6 0 2 3;
#X connect 7 0 2 2;
#X connect 8 0 1 1;
#X connect 9 0 1 2;
#X connect 10 0 1 3;
#X restore 38 494 pd ajusta_img;
#X obj 38 516 pix_texture;
#X obj 36 543 rectangle 5.333 4;
#X obj 157 332 metro 10;
#X obj 157 310 tgl 15 0 empty empty empty 17 7 0 10 -262144 -1 -1 1
1;
#X obj 37 246 s trsX;
#X obj 86 246 s trsY;
#X obj 133 246 s trsZ;
#X obj 230 246 s rotX;
#X obj 282 247 s rotY;
#X obj 331 247 s rotZ;
#X obj 43 95 vsl 30 128 -4 4 0 0 empty empty empty 0 -9 0 10 -262144
-1 -1 0 1;
#X obj 89 95 vsl 30 128 -4 4 0 0 empty empty empty 0 -9 0 10 -262144
-1 -1 0 1;
#X obj 139 95 vsl 30 128 -4 4 0 0 empty empty empty 0 -9 0 10 -262144
-1 -1 0 1;
#X obj 231 97 vsl 30 128 -90 90 0 0 empty empty empty 0 -9 0 10 -262144
-1 -1 0 1;
#X obj 284 98 vsl 30 128 -90 90 0 0 empty empty empty 0 -9 0 10 -262144
-1 -1 0 1;
#X obj 334 97 vsl 30 128 -90 90 0 0 empty empty empty 0 -9 0 10 -262144
-1 -1 0 1;
#X obj 202 34 bng 15 250 50 0 empty empty empty 17 7 0 10 -262144 -1
-1;
#X text 221 32 reset;
#X msg 144 33 0;
#X connect 1 0 15 0;
#X connect 2 0 1 0;
#X connect 3 0 4 0;
#X connect 4 0 1 0;
#X connect 4 1 5 0;
#X connect 5 0 3 1;
#X connect 6 0 1 1;
#X connect 7 0 1 2;
#X connect 8 0 1 0;
#X connect 8 1 3 0;
#X connect 12 0 5 0;
#X connect 14 0 8 0;
#X connect 15 0 16 0;
#X connect 16 0 17 0;
#X connect 18 0 12 0;
#X connect 19 0 18 0;
#X connect 26 0 20 0;
#X connect 27 0 21 0;
#X connect 28 0 22 0;
#X connect 29 0 23 0;
#X connect 30 0 24 0;
#X connect 31 0 25 0;
#X connect 32 0 34 0;
#X connect 34 0 26 0;
#X connect 34 0 27 0;
#X connect 34 0 28 0;
#X connect 34 0 29 0;
#X connect 34 0 30 0;
#X connect 34 0 31 0;
#X restore 344 190 pd adjustIMGout;
#X connect 1 0 0 0;
#X connect 2 0 0 0;
#X connect 3 0 0 0;
#X connect 4 0 25 0;
#X connect 5 0 6 0;
#X connect 6 0 13 0;
#X connect 7 0 0 0;
#X connect 9 0 8 0;
#X connect 10 0 33 0;
#X connect 10 1 11 0;
#X connect 11 0 15 0;
#X connect 12 0 9 0;
#X connect 13 0 10 0;
#X connect 14 0 13 0;
#X connect 16 0 22 0;
#X connect 16 0 23 0;
#X connect 18 0 14 0;
#X connect 19 0 17 0;
#X connect 21 0 20 0;
#X connect 22 0 21 0;
#X connect 23 0 17 0;
#X connect 23 1 24 0;
#X connect 23 2 1 0;
#X connect 23 3 7 0;
#X connect 24 0 3 0;
#X connect 25 0 5 0;
#X connect 26 0 27 0;
#X connect 28 0 32 0;
#X connect 30 0 26 0;
#X connect 31 0 58 0;
#X connect 32 0 29 0;
#X connect 33 0 12 0;
#X connect 34 0 35 0;
#X connect 35 0 33 4;
#X connect 36 0 0 0;
#X connect 37 0 36 0;
#X connect 38 0 39 0;
#X connect 40 0 41 0;
#X connect 41 0 5 0;
#X connect 44 0 45 0;
#X connect 45 0 43 1;
#X connect 46 0 43 0;
#X connect 47 0 43 2;
#X connect 48 0 43 3;
#X connect 49 0 43 4;
#X connect 50 0 41 0;
#X connect 52 0 4 0;
#X connect 53 0 23 0;
#X connect 54 0 62 0;
#X connect 54 0 59 0;
#X connect 55 0 51 0;
#X connect 56 0 51 0;
#X connect 59 0 57 0;
#X connect 60 0 61 0;
#X connect 71 0 69 0;
#X restore 375 43 pd patch;
#X obj 276 202 tgl 30 1 show_spot empty showsp 0 40 0 10 -3 -159808
-258113 1 1;
#X obj 131 194 tgl 30 1 full_sample empty full 0 40 0 12 -232576 -1
-1 0 1;
#N canvas 149 149 450 300 instructions 0;
#X text 276 248 Mick Mengucci \; LabIO 2015;
#X text 4 19 HOT SPOT This patch allows you to record a sample and
trigger it by changing the color in a certain spot (HOT) in the image
\; 1) Click on "start" and then "rec" on-off 4 times and record your
4 samples \; 2) Click "Liga" to turno on the hot-spots \; Obs: Adjust
the level of response to color change (slider threshold) and of noise-silence
\; "CLear" erases the sample \; "show spot" shows the spot in red \;
"full sample" plays the whole sample otherwise it retriggers it any
time you hit the hot spot \; **The abstraction[ColorDistance] must
be in the same directory! \;;
#X restore 336 13 pd instructions;
#X obj 219 148 vsl 25 100 0 1 0 0 THR THR-r THRESHOLD -20 -10 0 10
-262130 -1 -1 0 1;
#X obj 132 161 hradio 15 1 0 4 empty sampleN sample_n 0 -8 0 10 -262144
-1 -1 3;
#X obj 284 79 bng 50 250 50 0 start start-r start 2 12 0 10 -204786
-1 -1;
#X obj 357 80 bng 50 250 50 0 over over-r over 3 12 0 10 -261234 -1
-1;
#X obj 407 192 vsl 15 40 0 127 0 0 empty SoundIn empty 0 -9 0 10 -262144
-1 -1 0 1;
#X obj 364 203 tgl 30 1 checkSoundIn empty SoundIn 0 37 0 11 -159808
-1 -1 0 1;
#X obj 290 138 bng 40 250 50 0 defBang defBang-r defSamp 0 7 0 10 -159808
-257985 -191407;
#X obj 348 161 hradio 15 1 0 4 defSampN defSampN-r defSampleN 0 -8
0 10 -262144 -1 -1 1;
#X obj 317 203 tgl 30 1 dev2 dev2-r device 0 37 0 11 -83269 -1 -1 0
1;
#X obj 170 194 tgl 30 1 textOn textOn-r textOn 0 40 0 12 -232576 -1
-1 0 1;
#X obj 272 11 tgl 50 0 conn empty conn 17 7 0 10 -262144 -1 -1 1 1
;
#X obj 335 35 tgl 25 0 empty YA empty 17 7 0 10 -262144 -1 -1 1 1;
#X obj 17 200 tgl 50 0 CheckImg CheckImg-r PresDet 0 16 0 12 -159808
-1 -1 0 1;
