#N canvas 43 96 452 272 10;
#X obj 16 142 tgl 50 0 liga liga-r LIGA 0 16 0 20 -4034 -1 -1 0 1;
#X obj 11 9 cnv 15 240 120 empty empty empty 20 12 0 14 -233017 -66577
0;
#X obj 16 19 tgl 100 0 grava empty rec 17 16 0 20 -258113 -4160 -4034
0 1;
#X obj 137 19 bng 100 250 50 0 clear empty clear 17 40 0 20 -203904
-1 -1;
#X obj 267 73 cnv 15 160 180 empty empty empty 20 12 0 14 -228856 -66577
0;
#N canvas 444 98 515 598 patch 1;
#X obj 18 165 gemhead;
#X obj 17 249 pix_video;
#X obj 17 282 pix_rgba;
#X obj 53 480 rectangle 5.333 4;
#X obj 53 455 pix_texture;
#X obj 53 429 pix_separator;
#X obj 57 321 pix_flip;
#X msg 88 296 horizontal;
#X obj 88 273 r init;
#X obj 18 210 alpha;
#X floatatom 90 42 5 0 0 0 - - -, f 5;
#X obj 90 65 s THR;
#X obj 26 18 tgl 45 0 empty liga empty 17 7 0 10 -4034 -1 -1 0 1;
#X obj 26 98 s STORE;
#X obj 90 19 bng 15 250 50 0 empty empty empty 17 7 0 10 -262144 -1
-1;
#X obj 26 73 == 0;
#X obj 57 404 colorRGB;
#X obj 98 357 r miximg;
#X obj 98 379 expr 1 -$f1;
#X obj 62 186 r dev2;
#X msg 62 213 device \$1;
#X obj 196 428 cnv 15 300 150 empty empty empty 20 12 0 14 -260097
-66577 0;
#N canvas 121 74 1119 652 5effect 0;
#X obj 70 212 pix_image;
#X obj 40 505 rectangle 5.333 4;
#X obj 42 480 pix_texture;
#X obj 66 242 pix_separator;
#X obj 63 382 rotateXYZ;
#X obj 52 440 translateXYZ;
#X floatatom 119 416 5 0 0 0 - - -, f 5;
#X msg 29 156 open 5ultimate_red.jpg;
#X obj 64 273 alpha;
#X obj 69 353 colorRGB;
#X obj 166 260 vsl 15 60 0 1 0 0 miximg empty empty 0 -9 0 10 -262144
-1 -1 0 1;
#X floatatom 8 392 5 0 0 0 - - -, f 5;
#X floatatom 143 382 5 0 0 0 - - -, f 5;
#X obj 167 348 < 0.01;
#X obj 181 382 s showSq;
#N canvas 1 55 450 300 tremble 0;
#X obj 145 254 outlet;
#X obj 222 256 outlet;
#X obj 157 112 random 100;
#X obj 240 113 random 100;
#X obj 206 42 r IMAGE;
#X obj 220 74 t b;
#X msg 332 79 100;
#X obj 239 150 / 1000;
#X obj 158 149 / 1000;
#X obj 158 182 - 0.05;
#X obj 236 189 - 0.05;
#X connect 2 0 8 0;
#X connect 3 0 7 0;
#X connect 4 0 5 0;
#X connect 5 0 2 0;
#X connect 5 0 3 0;
#X connect 6 0 3 1;
#X connect 6 0 2 1;
#X connect 7 0 10 0;
#X connect 8 0 9 0;
#X connect 9 0 0 0;
#X connect 10 0 1 0;
#X restore 163 439 pd tremble;
#X obj 191 125 gemhead;
#X obj 276 423 part_head;
#X msg 326 402 speed \$1;
#X obj 283 464 part_source 1 point;
#X obj 284 494 part_velocity sphere 0 0.1 0.2 0.3;
#X obj 283 535 part_size;
#X floatatom 366 528 5 0 0 0 - - -, f 5;
#X obj 289 569 part_killold 20;
#X obj 622 93 part_info;
#X obj 622 134 separator;
#X obj 622 182 scale 1 0 0 0;
#X obj 622 261 rotateXYZ;
#X obj 745 158 unpack f f f;
#X obj 727 200 * 360;
#X obj 769 199 * 360;
#X obj 810 199 * 360;
#X text 702 137 velocity data > rotation;
#X obj 622 294 translate 1 0 0 0;
#X obj 622 445 pix_image;
#X obj 622 471 pix_texture;
#X obj 622 498 rectangle 4 3;
#X floatatom 402 569 5 0 0 0 - - -, f 5;
#X obj 288 597 send pt;
#X obj 622 60 receive pt;
#X obj 191 103 tgl 15 0 empty empty empty 17 7 0 10 -262144 -1 -1 0
1;
#X msg 648 341 open 5ultimate_red.jpg;
#X obj 299 235 rotateXYZ;
#X floatatom 355 210 5 0 0 0 - - -, f 5;
#X obj 416 256 line;
#X msg 418 219 \$1 100;
#X obj 435 345 max 0.02;
#X obj 704 317 r init;
#X obj 191 151 demux . .;
#X obj 248 120 tgl 15 0 empty empty empty 17 7 0 10 -262144 -1 -1 1
1;
#X obj 135 11 inlet;
#X obj 228 13 inlet;
#X obj 37 49 r init;
#X floatatom 205 316 5 0 0 0 - - -, f 5;
#X obj 207 279 line;
#X msg 249 223 1 1000;
#X msg 207 224 0 3000;
#X obj 324 48 bng 15 250 50 0 empty empty start 17 7 0 10 -262144 -1
-1;
#X obj 320 73 t b b;
#X msg 347 98 0;
#X obj 410 57 bng 15 250 50 0 empty empty over 17 7 0 10 -262144 -1
-1;
#X obj 409 83 t b b;
#X msg 431 131 1;
#X obj 314 12 inlet;
#X obj 408 15 inlet;
#X obj 582 244 vsl 15 70 0 127 0 0 empty empty empty 0 -9 0 10 -262144
-1 -1 3260 1;
#X floatatom 561 331 5 0 0 0 - - -, f 5;
#X obj 409 276 demux . .;
#X obj 474 276 tgl 15 0 empty empty empty 17 7 0 10 -262144 -1 -1 1
1;
#X obj 326 329 min 4;
#X obj 325 347 max 0.03;
#X obj 326 310 expr $f1-$f2;
#X obj 525 274 r init;
#X msg 493 273 1;
#X msg 646 366 open FiveLogo_Tourn.jpg;
#X msg 27 182 open FiveLogo_Tourn.jpg;
#X obj 431 107 del 2000;
#X obj 876 233 gemhead 52;
#X floatatom 899 471 5 0 0 0 - - -, f 5;
#X obj 876 265 alpha;
#X floatatom 893 300 5 0 0 0 - - -, f 5;
#X floatatom 928 299 5 0 0 0 - - -, f 5;
#X floatatom 964 298 5 0 0 0 - - -, f 5;
#X floatatom 998 299 5 0 1 0 - - -, f 5;
#X floatatom 907 373 5 0 0 0 - - -, f 5;
#X floatatom 952 372 5 0 0 0 - - -, f 5;
#X obj 877 332 colorRGB 0.2 0.6 1 0.5;
#X obj 881 573 text3d;
#X obj 876 204 tgl 15 0 empty empty empty 17 7 0 10 -262144 -1 -1 0
1;
#X msg 590 217 60;
#X text 518 347 SET NOISE VALUE;
#X obj 570 17 inlet;
#X msg 939 470 6;
#X obj 883 433 r init;
#X obj 874 405 translateXYZ -1.8 3.5 0;
#X obj 395 398 line;
#X msg 402 372 \$1 200;
#X obj 419 168 r VolIn;
#X obj 435 322 expr ($f1-$f2)/12;
#X msg 24 83 open sunset_from_air.jpg;
#X msg 18 113 open globe.jpeg;
#X msg 662 387 open globe.jpeg;
#X msg 681 408 open sunset_from_air.jpg;
#X msg 900 522 text change pixels color dancing;
#X msg 952 541 text and take a picture;
#X obj 815 500 sel 0 1;
#X obj 816 467 metro 1200;
#X obj 69 571 gemhead 52;
#X floatatom 253 664 5 0 0 0 - - -, f 5;
#X obj 69 603 alpha;
#X obj 213 694 text3d;
#X obj 69 542 tgl 15 0 empty empty empty 17 7 0 10 -262144 -1 -1 0
1;
#X obj 240 637 r init;
#X msg 269 697 text MOVE and AirPlay!;
#X msg 292 657 12;
#X obj 67 694 translateXYZ -1 2.3 0.1;
#X obj 22 535 r init;
#X msg 35 555 0;
#X obj 69 634 colorRGB 0.2 0.6 0 0.5;
#X msg 814 442 1;
#X obj 790 545 bng 15 250 50 0 empty empty empty 17 7 0 10 -262144
-1 -1;
#X obj 838 546 bng 15 250 50 0 empty empty empty 17 7 0 10 -262144
-1 -1;
#X obj 784 471 tgl 15 0 empty empty empty 17 7 0 10 -262144 -1 -1 1
1;
#X connect 0 0 3 0;
#X connect 2 0 1 0;
#X connect 3 0 8 0;
#X connect 4 0 5 0;
#X connect 5 0 2 0;
#X connect 6 0 5 3;
#X connect 7 0 0 0;
#X connect 8 0 9 0;
#X connect 9 0 4 0;
#X connect 10 0 9 4;
#X connect 10 0 13 0;
#X connect 10 0 53 0;
#X connect 11 0 4 2;
#X connect 13 0 12 0;
#X connect 13 0 14 0;
#X connect 15 0 5 1;
#X connect 15 1 5 2;
#X connect 16 0 48 0;
#X connect 17 0 19 0;
#X connect 18 0 17 0;
#X connect 19 0 20 0;
#X connect 20 0 21 0;
#X connect 21 0 23 0;
#X connect 22 0 21 1;
#X connect 23 0 38 0;
#X connect 24 0 25 0;
#X connect 24 2 33 2;
#X connect 24 4 28 0;
#X connect 24 5 26 2;
#X connect 25 0 26 0;
#X connect 26 0 27 0;
#X connect 27 0 33 0;
#X connect 28 0 29 0;
#X connect 28 1 30 0;
#X connect 28 2 31 0;
#X connect 29 0 27 1;
#X connect 30 0 27 2;
#X connect 31 0 27 3;
#X connect 33 0 34 0;
#X connect 34 0 35 0;
#X connect 35 0 36 0;
#X connect 37 0 23 1;
#X connect 39 0 24 0;
#X connect 40 0 16 0;
#X connect 41 0 34 0;
#X connect 42 0 17 0;
#X connect 43 0 42 3;
#X connect 44 0 67 0;
#X connect 45 0 44 0;
#X connect 46 0 96 0;
#X connect 47 0 101 0;
#X connect 48 0 0 0;
#X connect 48 1 42 0;
#X connect 49 0 48 1;
#X connect 50 0 40 0;
#X connect 51 0 49 0;
#X connect 52 0 100 0;
#X connect 54 0 10 0;
#X connect 55 0 54 0;
#X connect 56 0 54 0;
#X connect 57 0 58 0;
#X connect 58 0 56 0;
#X connect 58 1 59 0;
#X connect 59 0 49 0;
#X connect 60 0 61 0;
#X connect 61 0 55 0;
#X connect 61 1 76 0;
#X connect 62 0 49 0;
#X connect 63 0 57 0;
#X connect 64 0 60 0;
#X connect 65 0 66 0;
#X connect 65 0 71 1;
#X connect 65 0 98 1;
#X connect 67 0 71 0;
#X connect 67 1 98 0;
#X connect 68 0 67 1;
#X connect 69 0 70 0;
#X connect 70 0 96 0;
#X connect 71 0 69 0;
#X connect 72 0 73 0;
#X connect 72 0 89 0;
#X connect 73 0 68 0;
#X connect 74 0 34 0;
#X connect 75 0 0 0;
#X connect 76 0 62 0;
#X connect 77 0 79 0;
#X connect 78 0 87 1;
#X connect 79 0 86 0;
#X connect 80 0 86 1;
#X connect 81 0 86 2;
#X connect 82 0 86 3;
#X connect 83 0 86 4;
#X connect 84 0 94 1;
#X connect 85 0 94 2;
#X connect 86 0 94 0;
#X connect 88 0 77 0;
#X connect 89 0 65 0;
#X connect 91 0 65 0;
#X connect 92 0 78 0;
#X connect 93 0 92 0;
#X connect 93 0 119 0;
#X connect 94 0 87 0;
#X connect 95 0 18 0;
#X connect 96 0 95 0;
#X connect 97 0 45 0;
#X connect 98 0 46 0;
#X connect 100 0 0 0;
#X connect 101 0 34 0;
#X connect 103 0 87 0;
#X connect 104 0 87 0;
#X connect 105 0 103 0;
#X connect 105 0 120 0;
#X connect 105 1 104 0;
#X connect 105 1 121 0;
#X connect 106 0 122 0;
#X connect 107 0 109 0;
#X connect 108 0 110 1;
#X connect 109 0 118 0;
#X connect 111 0 107 0;
#X connect 112 0 114 0;
#X connect 112 0 113 0;
#X connect 113 0 110 0;
#X connect 114 0 108 0;
#X connect 115 0 110 0;
#X connect 116 0 117 0;
#X connect 117 0 111 0;
#X connect 118 0 115 0;
#X connect 119 0 106 0;
#X connect 122 0 105 0;
#X restore 321 548 pd 5effect;
#X obj 245 447 r init;
#X msg 245 470 1;
#X obj 213 471 tgl 15 0 empty empty empty 17 7 0 10 -262144 -1 -1 0
1;
#X obj 295 469 r start;
#X obj 354 472 r over;
#X obj 410 463 vsl 15 70 0 127 0 0 empty empty NoiseINthresh 0 -9 0
10 -262144 -1 -1 0 1;
#X msg 122 185 0;
#X obj 18 142 r MainImg;
#X obj 321 13 r start;
#X obj 400 13 r over;
#X msg 400 38 \; liga-r 0 \;;
#X msg 251 35 \; sampleN 0 \; sampleN 1 \; sampleN 2 \; sampleN 3 \;
;
#N canvas 1 173 446 183 TODO 0;
#X text 38 40 presence detector \, when it is not detecting anything
it turns off after 2min \;;
#X restore 119 19 pd TODO;
#N canvas 684 96 646 300 Android_conn 0;
#X obj 56 58 netreceive 8000;
#X obj 66 99 print;
#X obj 54 193 s start-r;
#X obj 54 218 s over-r;
#X obj 56 168 s liga-r;
#X obj 121 218 s defSampN-r;
#X obj 223 180 s dev2-r;
#X obj 494 104 netsend;
#X msg 475 23 connect localhost 8001;
#X msg 504 53 disconnect;
#X obj 498 148 tgl 15 0 empty empty empty 17 7 0 10 -262144 -1 -1 0
1;
#X obj 222 214 s textOn-r;
#X obj 286 179 s THR-r;
#X obj 343 202 s checkSoundIn-r;
#X obj 124 193 s defBang-r;
#X obj 37 125 route /liga /start /over /defBang /defSampN /dev2 /textOn
/THR /checkSoundIn;
#X floatatom 316 274 5 0 0 0 - - -, f 5;
#X connect 0 0 15 0;
#X connect 7 0 10 0;
#X connect 8 0 7 0;
#X connect 9 0 7 0;
#X connect 15 0 4 0;
#X connect 15 1 2 0;
#X connect 15 2 3 0;
#X connect 15 3 14 0;
#X connect 15 4 5 0;
#X connect 15 4 16 0;
#X connect 15 5 6 0;
#X connect 15 6 11 0;
#X connect 15 7 12 0;
#X connect 15 8 13 0;
#X restore 392 156 pd Android_conn;
#N canvas 570 94 708 673 netlink_audio 0;
#X obj 15 628 netsend;
#X msg 30 95 connect localhost 8900;
#X msg 43 121 disconnect;
#X obj 15 657 tgl 15 0 YA empty empty 17 7 0 10 -262144 -1 -1 0 1;
#X obj 69 146 r bangSample0;
#X obj 104 202 r bangSample1;
#X obj 127 262 r bangSample2;
#X obj 139 319 r bangSample3;
#X msg 69 170 send /bangSample0;
#X msg 104 225 send /bangSample1;
#X msg 138 343 send /bangSample3;
#X msg 126 288 send /bangSample2;
#X obj 185 378 r defBang;
#X msg 189 403 send /defBang;
#X obj 211 497 r start;
#X msg 211 522 send /start;
#X obj 31 36 tgl 15 0 empty empty empty 17 7 0 10 -262144 -1 -1 0 1
;
#X obj 34 11 r conn;
#X obj 28 64 sel 1 0;
#X obj 191 440 r defSampN;
#X msg 195 465 send /defSampN \$1;
#X obj 318 28 netreceive 8901;
#X obj 235 120 s VolIn;
#X obj 378 203 s 0-bolaOn \$1;
#X obj 489 119 s 3-bolaOn \$1;
#X obj 426 149 s 2-bolaOn \$1;
#X obj 395 178 s 1-bolaOn \$1;
#X obj 318 59 route /VolIn /0-bolaOn /1-bolaOn /2-bolaOn /3-bolaOn
/over-silence;
#X obj 590 117 s over-silence;
#X obj 212 617 r checkSoundIn;
#X msg 212 641 send /checkSoundIn \$1;
#X obj 93 40 s defBang;
#X msg 212 584 send /over-sound;
#X obj 211 559 r over-sound;
#X obj 344 474 r 0-grava;
#X obj 409 474 r 1-grava;
#X obj 473 474 r 2-grava;
#X obj 538 474 r 3-grava;
#X msg 345 504 send /0-grava \$1;
#X msg 405 527 send /1-grava \$1;
#X msg 478 553 send /2-grava \$1;
#X msg 547 579 send /3-grava \$1;
#X obj 534 605 r clear;
#X msg 535 632 send /clear;
#X obj 273 171 spigot;
#X obj 283 102 t f f;
#X obj 270 146 r ShowSoundIn;
#X obj 283 214 s VolIn-show;
#X connect 0 0 3 0;
#X connect 1 0 0 0;
#X connect 2 0 0 0;
#X connect 4 0 8 0;
#X connect 5 0 9 0;
#X connect 6 0 11 0;
#X connect 7 0 10 0;
#X connect 8 0 0 0;
#X connect 9 0 0 0;
#X connect 10 0 0 0;
#X connect 11 0 0 0;
#X connect 12 0 13 0;
#X connect 13 0 0 0;
#X connect 14 0 15 0;
#X connect 15 0 0 0;
#X connect 16 0 18 0;
#X connect 17 0 16 0;
#X connect 18 0 1 0;
#X connect 18 0 31 0;
#X connect 18 1 2 0;
#X connect 19 0 20 0;
#X connect 20 0 0 0;
#X connect 21 0 27 0;
#X connect 27 0 45 0;
#X connect 27 1 23 0;
#X connect 27 2 26 0;
#X connect 27 3 25 0;
#X connect 27 4 24 0;
#X connect 27 5 28 0;
#X connect 29 0 30 0;
#X connect 30 0 0 0;
#X connect 32 0 0 0;
#X connect 33 0 32 0;
#X connect 34 0 38 0;
#X connect 35 0 39 0;
#X connect 36 0 40 0;
#X connect 37 0 41 0;
#X connect 38 0 0 0;
#X connect 39 0 0 0;
#X connect 40 0 0 0;
#X connect 41 0 0 0;
#X connect 42 0 43 0;
#X connect 43 0 0 0;
#X connect 44 0 47 0;
#X connect 45 0 22 0;
#X connect 45 1 44 0;
#X connect 46 0 44 1;
#X restore 391 186 pd netlink_audio;
#X obj 231 345 cnv 15 100 60 empty empty empty 20 12 0 14 -233017 -66577
0;
#N canvas 248 172 777 583 sampleCoords 0;
#X floatatom 246 38 5 0 0 0 - - -, f 5;
#X obj 210 15 r sampleN;
#X msg 44 328 \; \$1-X \$2 \; \$1-Y \$3 \;;
#X obj 44 284 pack f f f;
#X obj 460 14 table Xcoor 4;
#X obj 461 40 table Ycoor 4;
#X obj 583 144 tabwrite Xcoor;
#X obj 237 339 tabread Xcoor;
#X obj 237 263 f;
#X obj 237 285 + 1;
#X obj 237 238 until;
#X obj 600 56 tabwrite Ycoor;
#X obj 237 308 mod 4;
#X msg 238 216 4;
#X obj 237 432 ==;
#X obj 252 402 f;
#X obj 237 454 sel 1;
#X obj 681 32 r sampleN;
#X obj 650 119 r sampleN;
#X obj 44 74 r sampleN;
#X obj 97 256 f;
#X obj 66 256 f;
#X obj 351 145 s Xcoor-prop;
#X obj 439 143 s Ycoor-prop;
#X obj 600 30 r Ycoor-prop;
#X obj 591 97 r Xcoor-prop;
#X obj 104 170 r Xcoor-prop;
#X obj 136 209 r Ycoor-prop;
#X obj 66 156 t b b;
#X obj 264 480 s SetCoord;
#X obj 66 134 r SetCoord;
#X obj 267 367 r Xcoor-prop;
#X obj 361 44 t b b;
#X obj 357 9 r GeraCoord;
#X obj 210 60 t b b;
#X obj 236 95 s GeraCoord;
#X obj 212 123 s TestaCoord;
#X obj 238 189 r TestaCoord;
#X obj 476 312 f;
#X obj 476 334 + 1;
#X obj 476 287 until;
#X obj 476 357 mod 4;
#X msg 477 265 4;
#X obj 476 481 ==;
#X obj 491 451 f;
#X obj 476 503 sel 1;
#X obj 503 529 s SetCoord;
#X obj 237 516 s TestaCoord-Y;
#X obj 477 239 r TestaCoord-Y;
#X obj 476 388 tabread Ycoor;
#X obj 506 416 r Ycoor-prop;
#X obj 476 553 s GeraCoord;
#X obj 637 301 tabread Xcoor;
#X obj 631 363 tabread Ycoor;
#X obj 610 247 hradio 15 1 0 4 empty empty empty 0 -8 0 10 -262144
-1 -1 3;
#X floatatom 648 335 5 0 0 0 - - -, f 5;
#X floatatom 649 402 5 0 0 0 - - -, f 5;
#X obj 353 92 random 100;
#X obj 439 90 random 100;
#X obj 439 115 / 100;
#X obj 353 115 / 100;
#X connect 1 0 0 0;
#X connect 1 0 34 0;
#X connect 3 0 2 0;
#X connect 7 0 14 0;
#X connect 8 0 9 0;
#X connect 9 0 8 1;
#X connect 9 0 12 0;
#X connect 10 0 8 0;
#X connect 12 0 7 0;
#X connect 13 0 10 0;
#X connect 14 0 16 0;
#X connect 15 0 14 1;
#X connect 16 0 47 0;
#X connect 16 1 29 0;
#X connect 17 0 11 1;
#X connect 18 0 6 1;
#X connect 19 0 3 0;
#X connect 20 0 3 2;
#X connect 21 0 3 1;
#X connect 24 0 11 0;
#X connect 25 0 6 0;
#X connect 26 0 21 1;
#X connect 27 0 20 1;
#X connect 28 0 21 0;
#X connect 28 1 20 0;
#X connect 30 0 28 0;
#X connect 31 0 15 1;
#X connect 32 0 57 0;
#X connect 32 1 58 0;
#X connect 33 0 32 0;
#X connect 34 0 36 0;
#X connect 34 1 35 0;
#X connect 37 0 13 0;
#X connect 38 0 39 0;
#X connect 39 0 38 1;
#X connect 39 0 41 0;
#X connect 40 0 38 0;
#X connect 41 0 49 0;
#X connect 42 0 40 0;
#X connect 43 0 45 0;
#X connect 44 0 43 1;
#X connect 45 0 51 0;
#X connect 45 1 46 0;
#X connect 48 0 42 0;
#X connect 49 0 43 0;
#X connect 50 0 44 1;
#X connect 52 0 55 0;
#X connect 53 0 56 0;
#X connect 54 0 52 0;
#X connect 54 0 53 0;
#X connect 57 0 60 0;
#X connect 58 0 59 0;
#X connect 59 0 23 0;
#X connect 60 0 22 0;
#X restore 235 383 pd sampleCoords;
#X obj 49 513 cnv 15 100 60 empty empty empty 20 12 0 14 -232576 -66577
0;
#N canvas 1 58 450 300 sound_trigger 0;
#X obj 39 11 adc~;
#X obj 40 35 env~;
#X floatatom 24 91 5 0 0 0 - - -, f 5;
#X obj 116 59 vsl 15 128 0 127 0 0 empty empty empty 0 -9 0 10 -262144
-1 -1 0 1;
#X obj 146 59 vsl 15 128 0 127 0 0 empty empty empty 0 -9 0 10 -262144
-1 -1 0 1;
#X obj 129 208 >;
#X obj 106 207 tgl 15 0 empty empty empty 17 7 0 10 -262144 -1 -1 0
1;
#X obj 129 234 sel 1;
#X obj 198 161 s start-r;
#X obj 251 217 s over-r;
#X obj 229 60 t b b b;
#X obj 370 150 delay 5000;
#X obj 273 136 delay 30000;
#X obj 270 182 t b b;
#X msg 374 182 \; liga-r 1;
#X msg 310 221 \; liga-r 0;
#X obj 78 35 spigot;
#X obj 130 36 tgl 15 0 empty empty empty 17 7 0 10 -262144 -1 -1 0
1;
#X obj 130 13 inlet;
#X connect 0 0 1 0;
#X connect 0 1 1 0;
#X connect 1 0 2 0;
#X connect 1 0 16 0;
#X connect 3 0 5 0;
#X connect 4 0 5 1;
#X connect 5 0 6 0;
#X connect 5 0 7 0;
#X connect 7 0 10 0;
#X connect 10 0 8 0;
#X connect 10 1 12 0;
#X connect 10 2 11 0;
#X connect 11 0 14 0;
#X connect 12 0 13 0;
#X connect 13 0 9 0;
#X connect 13 1 15 0;
#X connect 16 0 3 0;
#X connect 17 0 16 1;
#X connect 18 0 17 0;
#X restore 232 317 pd sound_trigger;
#N canvas 801 205 396 400 presence_det 0;
#X obj 38 110 pix_movement;
#X obj 38 185 pix_blob;
#X msg 60 160 4;
#X floatatom 99 185 10 0 0 0 - - -, f 10;
#X obj 38 78 spigot;
#X obj 91 81 tgl 15 0 empty empty empty 17 7 0 10 -262144 -1 -1 0 1
;
#X obj 60 137 loadbang;
#X msg 80 320 0;
#X obj 13 315 s start;
#X obj 119 81 r CheckImg;
#X obj 81 237 sel 1;
#X obj 72 344 s CheckImg-r;
#X obj 247 302 random 4;
#X obj 250 272 bng 15 250 50 0 empty empty empty 17 7 0 10 -262144
-1 -1;
#X obj 39 54 spigot;
#X obj 96 57 tgl 15 0 empty empty empty 17 7 0 10 -262144 -1 -1 1 1
;
#X obj 109 19 inlet;
#X floatatom 123 159 5 0 0 0 - - -, f 5;
#X obj 185 58 print;
#X obj 38 13 inlet;
#X obj 84 261 t b b b b;
#X obj 248 328 s defSampN-r;
#X obj 162 331 s defBang-r;
#X obj 254 178 r THRpres;
#X floatatom 242 219 5 0 0 0 - - -, f 5;
#X obj 83 211 >;
#X connect 0 0 1 0;
#X connect 1 3 3 0;
#X connect 1 3 25 0;
#X connect 2 0 1 1;
#X connect 4 0 0 0;
#X connect 5 0 4 1;
#X connect 6 0 2 0;
#X connect 7 0 11 0;
#X connect 9 0 5 0;
#X connect 10 0 20 0;
#X connect 12 0 21 0;
#X connect 13 0 12 0;
#X connect 14 0 4 0;
#X connect 15 0 14 1;
#X connect 16 0 15 0;
#X connect 17 0 1 1;
#X connect 19 0 14 0;
#X connect 20 0 8 0;
#X connect 20 1 7 0;
#X connect 20 2 22 0;
#X connect 20 3 12 0;
#X connect 23 0 24 0;
#X connect 23 0 25 1;
#X connect 25 0 10 0;
#X restore 52 543 pd presence_det;
#X obj 212 313 tgl 15 0 empty empty empty 17 7 0 10 -262144 -1 -1 0
1;
#N canvas 396 123 511 448 order_detect 0;
#X obj 32 51 bng 15 250 50 0 empty empty empty 17 7 0 10 -262144 -1
-1;
#X obj 32 149 bng 15 250 50 0 empty empty empty 17 7 0 10 -262144 -1
-1;
#X msg 33 170 \; Bn 1 \;;
#X obj 31 227 bng 15 250 50 0 empty empty empty 17 7 0 10 -262144 -1
-1;
#X obj 35 309 bng 15 250 50 0 empty empty empty 17 7 0 10 -262144 -1
-1;
#X msg 38 335 \; Bn 3 \;;
#X msg 31 248 \; Bn 2 \;;
#X msg 32 74 \; Bn 0 \;;
#X obj 155 78 r Bn;
#X msg 207 380 \; state 0;
#X obj 229 79 r state;
#X floatatom 153 110 5 0 0 0 - - -, f 5;
#X floatatom 229 106 5 0 0 0 - - -, f 5;
#X obj 153 147 t f f;
#X obj 207 203 ==;
#X obj 265 237 + 1;
#X obj 226 275 f;
#X obj 207 236 sel 0 1;
#X msg 225 300 \; state \$1;
#X obj 140 249 ==;
#X obj 155 221 - 1;
#X obj 140 274 sel 0;
#X obj 229 146 t f f f f;
#X obj 315 182 sel 4;
#X obj 374 198 bng 15 250 50 0 empty empty empty 17 7 0 10 -262144
-1 -1;
#X floatatom 298 160 5 0 0 0 - - -, f 5;
#X obj 381 340 s win;
#X obj 32 24 r bangSample0;
#X obj 32 116 r bangSample1;
#X obj 30 207 r bangSample2;
#X obj 34 286 r bangSample3;
#X obj 376 261 bng 15 250 50 0 empty empty empty 17 7 0 10 -262144
-1 -1;
#X obj 331 296 t b b;
#X connect 0 0 7 0;
#X connect 1 0 2 0;
#X connect 3 0 6 0;
#X connect 4 0 5 0;
#X connect 8 0 11 0;
#X connect 10 0 12 0;
#X connect 11 0 13 0;
#X connect 12 0 22 0;
#X connect 13 0 19 0;
#X connect 13 1 14 0;
#X connect 14 0 17 0;
#X connect 15 0 16 1;
#X connect 16 0 18 0;
#X connect 17 1 16 0;
#X connect 19 0 21 0;
#X connect 20 0 19 1;
#X connect 21 0 9 0;
#X connect 22 0 20 0;
#X connect 22 1 14 1;
#X connect 22 2 15 0;
#X connect 22 3 25 0;
#X connect 23 0 24 0;
#X connect 23 0 32 0;
#X connect 25 0 23 0;
#X connect 27 0 0 0;
#X connect 28 0 1 0;
#X connect 29 0 3 0;
#X connect 30 0 4 0;
#X connect 31 0 32 0;
#X connect 32 0 9 0;
#X connect 32 1 26 0;
#X restore 235 354 pd order_detect;
#N canvas 793 121 450 300 record_samples 0;
#X obj 97 33 r grava;
#X obj 97 58 sel 1 0;
#X obj 214 128 f;
#X obj 246 128 + 1;
#X msg 256 176 0;
#X obj 215 176 sel 4;
#X obj 98 201 demux . . . .;
#X obj 116 83 t b b;
#X msg 144 154 0;
#X obj 120 238 s 1-grava;
#X obj 184 238 s 2-grava;
#X obj 249 238 s 3-grava;
#X obj 55 238 s 0-grava;
#X obj 298 203 s sampleN;
#X msg 98 153 1;
#X obj 214 80 r init;
#X msg 214 104 0;
#X obj 298 176 min 3;
#X text 343 177 ?;
#X connect 0 0 1 0;
#X connect 1 0 14 0;
#X connect 1 1 7 0;
#X connect 2 0 3 0;
#X connect 2 0 5 0;
#X connect 2 0 6 1;
#X connect 3 0 2 1;
#X connect 4 0 2 0;
#X connect 5 0 4 0;
#X connect 6 0 12 0;
#X connect 6 1 9 0;
#X connect 6 2 10 0;
#X connect 6 3 11 0;
#X connect 7 0 2 0;
#X connect 7 1 8 0;
#X connect 8 0 6 0;
#X connect 14 0 6 0;
#X connect 15 0 16 0;
#X connect 16 0 2 0;
#X connect 17 0 13 0;
#X restore 367 386 pd record_samples;
#N canvas 222 120 505 647 win_effects 1;
#X obj 218 395 translateXYZ;
#X obj 293 230 gemhead 60;
#X floatatom 242 373 5 0 0 0 - - -, f 5;
#X floatatom 270 376 5 0 0 0 - - -, f 5;
#X obj 295 182 r init;
#X msg 295 204 0;
#X obj 284 14 r win;
#X obj 292 508 colorRGB;
#X obj 371 340 random 360;
#X obj 371 365 / 360;
#X obj 360 396 pack f 1 1;
#X obj 361 422 hsv2rgb;
#X obj 351 446 unpack f f f;
#X msg 249 171 1;
#X obj 178 188 t b b b;
#X msg 183 500 text yeah!!!;
#X floatatom 312 376 5 0 0 0 - - -, f 5;
#X msg 212 229 2 300;
#X obj 217 257 line;
#X obj 187 470 r init;
#X obj 163 269 t f f;
#X obj 146 224 delay 5000;
#X msg 153 247 -2 3000;
#X obj 254 298 separator;
#X obj 293 260 t a b;
#X obj 287 42 spigot;
#X obj 344 41 tgl 15 0 empty empty empty 17 7 0 10 -262144 -1 -1 1
1;
#X obj 345 16 inlet;
#N canvas 1 87 980 680 flash_getImg 0;
#X obj 174 6 inlet;
#X obj 166 33 bng 15 250 50 0 empty empty empty 17 7 0 10 -262144 -1
-1;
#X obj 21 9 pix_buffer winframe 1;
#X obj 584 237 pix_buffer_write winframe;
#X obj 581 208 r IMAGE;
#X obj 513 445 pix_buffer_read winframe;
#X obj 476 547 pix_texture;
#X obj 477 580 rectangle 5.333 4;
#X obj 513 416 gemhead 80;
#X obj 544 386 tgl 15 0 empty empty empty 17 7 0 10 -262144 -1 -1 0
1;
#X msg 684 193 0;
#X msg 647 408 0;
#X obj 738 126 tgl 15 0 empty empty empty 17 7 0 10 -262144 -1 -1 0
1;
#X obj 752 160 cnv 15 200 300 empty empty empty 20 12 0 14 -228856
-66577 0;
#X obj 771 277 gemhead 60;
#X obj 770 342 separator;
#X obj 767 438 rectangle 5.33 4;
#X obj 770 411 colorRGB;
#X obj 903 359 line;
#X msg 921 309 1;
#X obj 765 382 alpha;
#X msg 875 311 0 100;
#X obj 832 174 t b b b b;
#X msg 909 212 1, f 2;
#X msg 819 234 0;
#X obj 819 202 delay 100;
#X obj 819 106 bng 15 250 50 0 empty empty empty 17 7 0 10 -262144
-1 -1;
#X obj 537 127 delay 100;
#X obj 495 307 delay 5000;
#X obj 556 266 t b b b;
#X msg 623 334 1;
#X obj 474 278 r init;
#X msg 483 343 0;
#X obj 451 518 t a a;
#X obj 389 237 time . . .;
#X obj 297 219 bng 15 250 50 0 empty empty empty 17 7 0 10 -262144
-1 -1;
#X obj 286 417 pix_writer 0 0 800 600;
#X obj 737 66 r init;
#X msg 742 102 0;
#X obj 324 276 date . . .;
#X obj 318 338 pack f f f f f f;
#X obj 286 241 t b b b b;
#X obj 534 481 pix_flip;
#X msg 599 495 horizontal;
#X obj 604 471 loadbang;
#X obj 193 31 t b b b b b;
#X obj 180 643 print 1;
#X obj 248 642 print 2;
#X msg 313 382 file \$1\$2\$3\$4\$5\$6- 99;
#X msg 112 533 python postit_.py \$1\$2\$3\$4\$5\$6-00000.jpg;
#X obj 203 599 ggee/shell;
#X obj 128 487 list;
#X obj 145 414 t b l;
#X obj 125 455 delay 3000;
#X connect 0 0 45 0;
#X connect 1 0 45 0;
#X connect 4 0 3 0;
#X connect 5 0 42 0;
#X connect 6 0 7 0;
#X connect 8 0 5 0;
#X connect 9 0 8 0;
#X connect 10 0 3 1;
#X connect 11 0 5 1;
#X connect 12 0 14 0;
#X connect 14 0 15 0;
#X connect 15 0 20 0;
#X connect 17 0 16 0;
#X connect 18 0 17 4;
#X connect 19 0 18 0;
#X connect 20 0 17 0;
#X connect 21 0 18 0;
#X connect 22 0 25 0;
#X connect 22 1 21 0;
#X connect 22 2 19 0;
#X connect 22 3 23 0;
#X connect 23 0 14 0;
#X connect 24 0 14 0;
#X connect 25 0 24 0;
#X connect 26 0 22 0;
#X connect 27 0 10 0;
#X connect 27 0 29 0;
#X connect 28 0 32 0;
#X connect 29 0 28 0;
#X connect 29 1 30 0;
#X connect 29 2 11 0;
#X connect 30 0 9 0;
#X connect 31 0 32 0;
#X connect 32 0 9 0;
#X connect 33 0 36 0;
#X connect 33 1 6 0;
#X connect 34 0 40 3;
#X connect 34 1 40 4;
#X connect 34 2 40 5;
#X connect 35 0 41 0;
#X connect 37 0 38 0;
#X connect 38 0 12 0;
#X connect 39 0 40 0;
#X connect 39 1 40 1;
#X connect 39 2 40 2;
#X connect 40 0 48 0;
#X connect 40 0 52 0;
#X connect 41 0 36 0;
#X connect 41 2 39 0;
#X connect 41 3 34 0;
#X connect 42 0 33 0;
#X connect 43 0 42 0;
#X connect 44 0 43 0;
#X connect 45 1 35 0;
#X connect 45 2 27 0;
#X connect 45 3 22 0;
#X connect 48 0 36 0;
#X connect 49 0 50 0;
#X connect 50 0 46 0;
#X connect 50 1 47 0;
#X connect 51 0 49 0;
#X connect 52 0 53 0;
#X connect 52 1 51 1;
#X connect 53 0 51 0;
#X restore 352 181 pd flash_getImg;
#X obj 131 157 s over-r;
#X obj 22 179 s CheckImg-r;
#X msg 31 156 1;
#X obj 162 134 delay 5000;
#X obj 259 71 bng 15 250 50 0 empty empty empty 17 7 0 10 -262144 -1
-1;
#X obj 269 562 text3d;
#X obj 391 17 r init;
#X msg 391 44 1;
#X obj 287 67 t b b b b b b;
#X obj 367 145 s over-sound;
#X obj 44 134 delay 10000;
#X connect 0 0 7 0;
#X connect 1 0 24 0;
#X connect 2 0 0 1;
#X connect 3 0 0 2;
#X connect 4 0 5 0;
#X connect 5 0 1 0;
#X connect 6 0 25 0;
#X connect 7 0 34 0;
#X connect 8 0 9 0;
#X connect 9 0 10 0;
#X connect 10 0 11 0;
#X connect 11 0 12 0;
#X connect 12 0 7 1;
#X connect 12 1 7 2;
#X connect 12 2 7 4;
#X connect 13 0 1 0;
#X connect 14 0 21 0;
#X connect 14 1 17 0;
#X connect 14 2 13 0;
#X connect 15 0 34 0;
#X connect 16 0 0 3;
#X connect 17 0 18 0;
#X connect 18 0 16 0;
#X connect 19 0 15 0;
#X connect 21 0 22 0;
#X connect 22 0 20 0;
#X connect 22 0 18 0;
#X connect 23 0 0 0;
#X connect 24 0 23 0;
#X connect 24 1 8 0;
#X connect 25 0 37 0;
#X connect 26 0 25 1;
#X connect 27 0 26 0;
#X connect 31 0 30 0;
#X connect 32 0 29 0;
#X connect 33 0 37 0;
#X connect 35 0 36 0;
#X connect 36 0 26 0;
#X connect 37 0 39 0;
#X connect 37 2 32 0;
#X connect 37 3 14 0;
#X connect 37 4 28 0;
#X connect 37 5 38 0;
#X connect 39 0 31 0;
#X restore 369 357 pd win_effects;
#X obj 193 147 cnv 15 180 60 empty empty empty 20 12 0 14 -258113 -66577
0;
#N canvas 206 284 548 298 init&gem 0;
#X obj 319 255 gemwin;
#X msg 301 202 create;
#X msg 352 205 destroy;
#X obj 261 215 tgl 15 0 empty empty empty 17 7 0 10 -262144 -1 -1 1
1;
#X obj 164 47 loadbang;
#X obj 198 101 s init;
#X obj 198 78 bng 15 250 50 0 empty empty empty 17 7 0 10 -262144 -1
-1;
#X msg 160 155 \; pd dsp \$1;
#X obj 160 132 tgl 15 0 empty empty empty 17 7 0 10 -262144 -1 -1 1
1;
#X msg 161 111 1;
#X obj 236 70 t b b b b;
#X msg 247 192 1;
#X obj 43 23 r init;
#X obj 156 226 gemhead;
#X obj 156 250 world_light;
#X obj 237 44 bng 15 250 50 0 empty empty empty 17 7 0 10 -262144 -1
-1;
#X msg 43 154 \; conn-r 1 \; defBang bang \;;
#X obj 43 205 delay 2000;
#X msg 43 242 \; CheckImg-r 1;
#X msg 319 144 dimen 800 600;
#X obj 43 125 delay 5000;
#X msg 439 202 dimen \$1 \$2;
#X obj 446 92 inlet dimXdimy;
#X obj 447 153 t b b l b;
#X msg 42 49 \; liga 0 \; THR-r 0.3 \; THRpres-r 0.015 \;;
#X connect 1 0 0 0;
#X connect 2 0 0 0;
#X connect 3 0 0 0;
#X connect 4 0 9 0;
#X connect 4 0 10 0;
#X connect 6 0 5 0;
#X connect 8 0 7 0;
#X connect 9 0 8 0;
#X connect 10 0 5 0;
#X connect 10 1 11 0;
#X connect 10 2 1 0;
#X connect 10 3 19 0;
#X connect 11 0 3 0;
#X connect 12 0 24 0;
#X connect 13 0 14 0;
#X connect 15 0 10 0;
#X connect 16 0 17 0;
#X connect 17 0 18 0;
#X connect 19 0 0 0;
#X connect 20 0 16 0;
#X connect 21 0 0 0;
#X connect 22 0 23 0;
#X connect 23 0 11 0;
#X connect 23 1 1 0;
#X connect 23 2 21 0;
#X connect 23 3 2 0;
#X connect 24 0 20 0;
#X restore 94 113 pd init&gem;
#X obj 204 151 HotSpot-V 0;
#X msg 400 104 \; CheckImg-r 1;
#X obj 320 41 delay 3500;
#X msg 321 68 \; liga-r 1 \;;
#X obj 400 78 delay 5000;
#X obj 348 358 tgl 15 1 empty empty empty 17 7 0 10 -262144 -1 -1 1
1;
#X obj 139 519 tgl 15 1 empty empty empty 17 7 0 10 -262144 -1 -1 1
1;
#X obj 294 151 HotSpot-V 1;
#X obj 293 185 HotSpot-V 3;
#X obj 203 185 HotSpot-V 2;
#X obj 46 349 t a a;
#X obj 10 377 s IMAGE;
#N canvas 36 220 271 184 silence_detect 0;
#X obj 58 33 cnv 15 100 60 empty empty empty 20 12 0 14 -233017 -66577
0;
#X obj 64 41 r over-silence;
#X obj 68 66 t b b;
#X obj 112 87 delay 3000;
#X msg 112 109 \; CheckImg-r 1;
#X obj 45 95 s over-r;
#X connect 1 0 2 0;
#X connect 2 0 5 0;
#X connect 2 1 3 0;
#X connect 3 0 4 0;
#X restore 398 321 pd silence_detect;
#X msg 153 58 800 600;
#X msg 151 81 1280 800;
#N canvas 584 144 724 623 adjust_gemout 0;
#X obj 311 72 pix_buffer \$0-framebuffer 2;
#X obj 620 68 gemhead 5;
#X obj 620 89 world_light;
#X obj 75 399 cnv 15 250 130 empty empty empty 20 12 0 14 -233017 -66577
0;
#X obj 161 229 cnv 15 150 150 empty empty scene 20 12 0 14 -233017
-66577 0;
#X obj 82 156 gemhead 20;
#X obj 82 180 gemframebuffer;
#X msg 163 155 dimen 256 256;
#X obj 167 291 rotateXYZ;
#X obj 167 336 teapot;
#X obj 82 226 t a a b;
#X obj 187 253 i;
#X obj 220 252 + 1;
#X obj 250 251 % 360;
#X obj 82 413 t a b;
#X msg 114 434 snap;
#X obj 82 482 t a b;
#X msg 296 487 1;
#X obj 82 507 pix_buffer_write \$0-framebuffer;
#X obj 410 222 gemhead 30;
#X obj 410 266 t a b;
#X msg 465 267 1;
#X obj 410 291 pix_buffer_read \$0-framebuffer;
#X obj 410 371 pix_texture;
#X obj 410 436 square 3;
#X obj 82 203 translateXYZ 0 0 -4;
#X obj 82 458 pix_snap 0 0 256 256;
#X obj 167 313 color 1 0 1;
#X floatatom 226 273 5 0 0 0 - - -, f 5;
#X obj 410 413 rotateXYZ;
#X floatatom 445 393 5 0 0 0 - - -, f 5;
#X text 318 90 temporary storage;
#X obj 163 135 loadbang;
#X text 130 411 later usage;
#X text 129 396 snapshot and store image for;
#X text 562 268 fetch framebuffer-pix;
#X text 535 339 apply some nifty FX;
#X text 73 557 note \, that there are more efficient ways to apply
FX to framebuffers (noteably openGL-shaders: see examples/10.glsl/
for more information);
#X obj 425 318 tgl 15 0 empty empty empty 17 7 0 10 -262144 -1 -1 0
1;
#X obj 410 340 pix_kaleidoscope;
#X text 72 15 IN CASE YOU NEED TO ADJUST THE IMAGE OUT FOR INCLINED
PROJECTION;
#X text 47 1 comment;
#X connect 1 0 2 0;
#X connect 5 0 6 0;
#X connect 6 0 25 0;
#X connect 7 0 6 0;
#X connect 8 0 27 0;
#X connect 10 0 14 0;
#X connect 10 1 8 0;
#X connect 10 2 11 0;
#X connect 11 0 12 0;
#X connect 11 0 8 1;
#X connect 11 0 8 2;
#X connect 12 0 13 0;
#X connect 13 0 11 1;
#X connect 14 0 26 0;
#X connect 14 1 15 0;
#X connect 15 0 26 0;
#X connect 16 0 18 0;
#X connect 16 1 17 0;
#X connect 17 0 18 1;
#X connect 19 0 20 0;
#X connect 20 0 22 0;
#X connect 20 1 21 0;
#X connect 21 0 22 1;
#X connect 22 0 39 0;
#X connect 23 0 29 0;
#X connect 25 0 10 0;
#X connect 26 0 16 0;
#X connect 27 0 9 0;
#X connect 28 0 8 3;
#X connect 29 0 24 0;
#X connect 30 0 29 2;
#X connect 32 0 7 0;
#X connect 38 0 39 0;
#X connect 39 0 23 0;
#X restore 391 216 pd adjust_gemout;
#X connect 0 0 9 0;
#X connect 1 0 2 0;
#X connect 2 0 6 0;
#X connect 3 0 42 0;
#X connect 4 0 3 0;
#X connect 5 0 4 0;
#X connect 6 0 59 0;
#X connect 7 0 6 0;
#X connect 8 0 7 0;
#X connect 9 0 1 0;
#X connect 10 0 11 0;
#X connect 12 0 15 0;
#X connect 14 0 10 0;
#X connect 15 0 13 0;
#X connect 16 0 5 0;
#X connect 17 0 18 0;
#X connect 18 0 16 4;
#X connect 19 0 20 0;
#X connect 20 0 1 0;
#X connect 23 0 24 0;
#X connect 24 0 22 1;
#X connect 25 0 22 0;
#X connect 26 0 22 2;
#X connect 27 0 22 3;
#X connect 28 0 22 4;
#X connect 29 0 20 0;
#X connect 30 0 0 0;
#X connect 31 0 34 0;
#X connect 31 0 51 0;
#X connect 32 0 33 0;
#X connect 33 0 53 0;
#X connect 43 0 41 0;
#X connect 51 0 52 0;
#X connect 53 0 50 0;
#X connect 54 0 46 0;
#X connect 55 0 42 1;
#X connect 59 0 60 0;
#X connect 59 1 16 0;
#X connect 62 0 48 0;
#X connect 63 0 48 0;
#X restore 375 43 pd patch;
#X obj 276 202 tgl 30 1 show_spot empty showsp 0 40 0 10 -3 -159808
-258113 1 1;
#X obj 114 208 tgl 30 1 full_sample empty full 0 40 0 12 -232576 -1
-1 0 1;
#N canvas 143 145 407 358 instructions 0;
#X text 279 288 Mick Mengucci \; LabIO 2015;
#X text 4 19 HOT SPOT This patch allows you to record a sample and
trigger it by changing the color in a certain spot (HOT) in the image
\; 1) Click on "start" and then "rec" on-off 4 times and record your
4 samples \; "Conn" to connect the sound patch. 2) Click "Liga" to
turn on the hot-spots \; Obs: Adjust the level of response to color
change (slider threshold) and of noise-silence \; 3) the threshold
'THRpres' of presence detection to trigger start and the threshold
of sensitivity of HotSpots 'THR' must be calibrated to each scene and
illumination condition should not vary during the game. 4) Touche the
4 Hotsposts in sequence 0-1-2-3 and take a picture. "Clear" erases
the sample \; "show spot" shows the spot in red \; "full sample" plays
the whole sample otherwise it retriggers it any time you hit the hot
spot \; **The abstraction[ColorDistance] must be in the same directory!
\;;
#X restore 336 13 pd instructions;
#X obj 180 152 vsl 25 100 0 1 0 0 THR THR-r THR_color -20 -10 0 10
-262130 -1 -1 2970 1;
#X obj 284 79 bng 50 250 50 0 start start-r start 2 12 0 10 -204786
-1 -1;
#X obj 357 80 bng 50 250 50 0 over over-r over 3 12 0 10 -261234 -1
-1;
#X obj 407 192 vsl 15 40 0 127 0 0 empty VolIn-show empty 0 -9 0 10
-262144 -1 -1 0 1;
#X obj 364 203 tgl 30 1 ShowSoundIn empty SoundIn 0 37 0 11 -159808
-1 -1 0 1;
#X obj 290 138 bng 40 250 50 0 defBang defBang-r defSamp 0 7 0 10 -159808
-257985 -191407;
#X obj 348 161 hradio 15 1 0 4 defSampN defSampN-r defSampleN 0 -8
0 10 -262144 -1 -1 2;
#X obj 317 203 tgl 30 1 dev2 dev2-r device 0 37 0 11 -83269 -1 -1 0
1;
#X obj 114 151 tgl 30 1 textOn textOn-r textOn 0 40 0 12 -232576 -1
-1 1 1;
#X obj 272 11 tgl 50 0 conn conn-r conn 17 7 0 10 -257985 -1 -1 0 1
;
#X obj 335 35 tgl 25 0 empty YA empty 17 7 0 10 -262144 -1 -1 0 1;
#X obj 17 200 tgl 50 0 CheckImg CheckImg-r PresDet 0 16 0 12 -159808
-1 -1 0 1;
#X obj 227 152 vsl 25 100 0 1 0 0 THRpres THRpres-r THR_pres -10 -10
0 10 -232576 -1 -1 148 1;
