#N canvas 242 414 558 298 10;
#X obj 139 33 cnv 15 150 100 empty empty empty 20 12 0 14 -233017 -66577
0;
#X obj 160 40 adc~;
#X obj 155 100 send~ InputSound;
#X obj 47 192 dac~;
#X obj 56 155 catch~ SoundOut;
#X obj 192 155 cnv 15 100 60 empty empty empty 20 12 0 14 -233017 -66577
0;
#N canvas 609 268 756 414 tables 0;
#N canvas 0 50 450 250 (subpatch) 0;
#X array 1-sample 70349 float 2;
#X coords 0 1 70349 -1 200 140 1;
#X restore 265 52 graph;
#N canvas 0 50 450 250 (subpatch) 0;
#X array 2-sample 54279 float 2;
#X coords 0 1 54279 -1 200 140 1;
#X restore 38 253 graph;
#N canvas 0 50 450 250 (subpatch) 0;
#X array 3-sample 85195 float 2;
#X coords 0 1 85195 -1 200 140 1;
#X restore 271 248 graph;
#N canvas 0 50 450 250 (subpatch) 0;
#X array 0-sample 19333 float 2;
#X coords 0 1 19333 -1 200 140 1;
#X restore 38 50 graph;
#N canvas 0 50 450 250 (subpatch) 0;
#X array sample 25793 float 2;
#X coords 0 1 25793 -1 200 140 1;
#X restore 512 125 graph;
#X restore 210 193 pd tables;
#X obj 207 56 env~;
#X obj 207 75 s VolIn;
#N canvas 206 105 792 641 samples 0;
#X obj 292 611 soundfiler;
#X msg 462 535 read -resize audio_samples/ooohoa.aif sample;
#X obj 30 137 tabplay~ sample;
#X obj 36 112 bng 15 250 50 0 empty empty empty 17 7 0 10 -262144 -1
-1;
#X msg 66 403 read -resize audio_samples/writethismotherfucker.aif
sample;
#X msg 120 458 read -resize audio_samples/kickit.aif sample;
#X msg 97 430 read -resize audio_samples/getbusy.aif sample;
#X msg 458 509 read -resize audio_samples/yeahboy.aif sample;
#X msg 461 567 read -resize audio_samples/pumpit.aif sample;
#X msg 39 377 read -resize audio_samples/partypeopleinthehouse.aif
sample;
#X obj 383 43 r over;
#X obj 573 361 f;
#X obj 606 360 + 1;
#X obj 575 328 bng 15 250 50 0 empty empty empty 17 7 0 10 -262144
-1 -1;
#X obj 601 424 t b b;
#X obj 639 427 t b b;
#X obj 679 430 t b b;
#X msg 625 328 0;
#X obj 623 394 sel 1 2 3 4;
#X obj 245 231 f;
#X obj 278 230 + 1;
#X obj 247 198 bng 15 250 50 0 empty empty empty 17 7 0 10 -262144
-1 -1;
#X obj 117 320 t b b;
#X obj 157 319 t b b;
#X obj 198 322 t b b;
#X msg 297 198 0;
#X obj 126 172 s endSample;
#X obj 462 358 r endSample;
#X obj 166 287 sel 1 2 3 4 5;
#X obj 242 324 t b b;
#X obj 41 80 r goSample;
#X obj 274 351 s goSample;
#X obj 661 478 s goSample;
#X obj 238 34 r start;
#X obj 149 231 r endSample;
#X msg 246 99 0;
#X obj 234 68 t b b b;
#X msg 279 103 1;
#X obj 253 165 spigot;
#X msg 427 129 0;
#X obj 386 94 t b b b;
#X msg 399 128 1;
#X obj 376 160 spigot;
#X text 631 42 init sounds;
#X obj 540 44 r defSampN;
#X obj 479 77 demux . . . .;
#N canvas 600 85 448 364 def0 0;
#X obj 69 323 soundfiler;
#X msg 98 209 read -resize audio_samples/dontstop.aif 3-sample;
#X obj 25 36 bng 15 250 50 0 empty empty empty 17 7 0 10 -262144 -1
-1;
#X msg 73 73 read -resize audio_samples/dovescry1.aif 1-sample;
#X msg 128 36 \; sampleN 0 \;;
#X obj 57 45 t b b;
#X obj 92 99 t b b;
#X msg 148 102 \; sampleN 1 \;;
#X obj 93 172 t b b;
#X msg 143 170 \; sampleN 2 \;;
#X obj 103 251 t b b;
#X msg 153 249 \; sampleN 3 \;;
#X obj 26 11 inlet;
#X msg 84 287 read -resize audio_samples/howlowcanyougo.aif 0-sample
;
#X msg 88 137 read -resize audio_samples/owbellandrattle.aif 2-sample
;
#X connect 1 0 0 0;
#X connect 2 0 5 0;
#X connect 2 0 6 0;
#X connect 2 0 8 0;
#X connect 2 0 10 0;
#X connect 3 0 0 0;
#X connect 5 0 3 0;
#X connect 5 1 4 0;
#X connect 6 0 14 0;
#X connect 6 1 7 0;
#X connect 8 0 1 0;
#X connect 8 1 9 0;
#X connect 10 0 13 0;
#X connect 10 1 11 0;
#X connect 12 0 2 0;
#X connect 13 0 0 0;
#X connect 14 0 0 0;
#X restore 478 111 pd def0;
#N canvas 870 311 452 361 def1 0;
#X obj 49 323 soundfiler;
#X obj 4 63 bng 15 250 50 0 empty empty empty 17 7 0 10 -262144 -1
-1;
#X msg 112 33 \; sampleN 0 \;;
#X obj 37 45 t b b;
#X obj 72 99 t b b;
#X msg 128 102 \; sampleN 1 \;;
#X obj 73 172 t b b;
#X msg 123 170 \; sampleN 2 \;;
#X obj 83 251 t b b;
#X msg 133 249 \; sampleN 3 \;;
#X msg 53 73 read -resize audio_samples/8bit.aif 1-sample;
#X msg 68 137 read -resize audio_samples/8bit2.aif 2-sample;
#X msg 78 209 read -resize audio_samples/80sbasslong.aif 3-sample;
#X msg 64 287 read -resize audio_samples/303.aif 0-sample;
#X obj 13 21 inlet;
#X connect 1 0 3 0;
#X connect 1 0 4 0;
#X connect 1 0 6 0;
#X connect 1 0 8 0;
#X connect 3 0 10 0;
#X connect 3 1 2 0;
#X connect 4 0 11 0;
#X connect 4 1 5 0;
#X connect 6 0 12 0;
#X connect 6 1 7 0;
#X connect 8 0 13 0;
#X connect 8 1 9 0;
#X connect 10 0 0 0;
#X connect 11 0 0 0;
#X connect 12 0 0 0;
#X connect 13 0 0 0;
#X connect 14 0 1 0;
#X restore 541 109 pd def1;
#X obj 469 44 r defBang;
#N canvas 646 337 452 361 def2 0;
#X obj 49 233 soundfiler;
#X obj 4 -27 bng 15 250 50 0 empty empty empty 17 7 0 10 -262144 -1
-1;
#X msg 100 -52 \; sampleN 0 \;;
#X obj 37 -45 t b b;
#X obj 72 9 t b b;
#X msg 128 12 \; sampleN 1 \;;
#X obj 73 82 t b b;
#X msg 123 80 \; sampleN 2 \;;
#X obj 83 161 t b b;
#X msg 133 159 \; sampleN 3 \;;
#X obj 13 -69 inlet;
#X msg 68 47 read -resize audio_samples/wwwwwhatwhat.aif 2-sample;
#X msg 78 118 read -resize audio_samples/simplehipbitbeat.aif 3-sample
;
#X msg 53 -16 read -resize audio_samples/ooohoa.aif 1-sample;
#X msg 64 197 read -resize audio_samples/hitclap.aif 0-sample;
#X connect 1 0 3 0;
#X connect 1 0 4 0;
#X connect 1 0 6 0;
#X connect 1 0 8 0;
#X connect 3 0 13 0;
#X connect 3 1 2 0;
#X connect 4 0 11 0;
#X connect 4 1 5 0;
#X connect 6 0 12 0;
#X connect 6 1 7 0;
#X connect 8 0 14 0;
#X connect 8 1 9 0;
#X connect 10 0 1 0;
#X connect 11 0 0 0;
#X connect 12 0 0 0;
#X connect 13 0 0 0;
#X connect 14 0 0 0;
#X restore 606 112 pd def2;
#N canvas 790 276 452 361 def3 0;
#X obj 49 233 soundfiler;
#X obj 4 -27 bng 15 250 50 0 empty empty empty 17 7 0 10 -262144 -1
-1;
#X msg 124 -52 \; sampleN 0 \;;
#X obj 37 -45 t b b;
#X obj 72 9 t b b;
#X msg 128 12 \; sampleN 1 \;;
#X obj 73 82 t b b;
#X msg 123 80 \; sampleN 2 \;;
#X obj 83 161 t b b;
#X msg 133 159 \; sampleN 3 \;;
#X obj 13 -69 inlet;
#X msg 64 197 read -resize audio_samples/itbeganinafrica.aif 0-sample
;
#X msg 68 47 read -resize audio_samples/resonantacid.aif 2-sample;
#X msg 78 118 read -resize audio_samples/cowbelloop.aif 3-sample;
#X msg 53 -17 read -resize audio_samples/hiphop.aif 1-sample;
#X connect 1 0 3 0;
#X connect 1 0 4 0;
#X connect 1 0 6 0;
#X connect 1 0 8 0;
#X connect 3 0 14 0;
#X connect 3 1 2 0;
#X connect 4 0 12 0;
#X connect 4 1 5 0;
#X connect 6 0 13 0;
#X connect 6 1 7 0;
#X connect 8 0 11 0;
#X connect 8 1 9 0;
#X connect 10 0 1 0;
#X connect 11 0 0 0;
#X connect 12 0 0 0;
#X connect 13 0 0 0;
#X connect 14 0 0 0;
#X restore 675 110 pd def3;
#X obj 21 172 throw~ SoundOut;
#X obj 615 181 r sampleN;
#X floatatom 615 204 5 0 0 0 - - -, f 5;
#X text 596 219 I don't remember why this;
#X connect 1 0 0 0;
#X connect 2 0 51 0;
#X connect 2 1 26 0;
#X connect 3 0 2 0;
#X connect 4 0 0 0;
#X connect 5 0 0 0;
#X connect 6 0 0 0;
#X connect 7 0 0 0;
#X connect 8 0 0 0;
#X connect 9 0 0 0;
#X connect 10 0 40 0;
#X connect 11 0 12 0;
#X connect 12 0 11 1;
#X connect 12 0 18 0;
#X connect 13 0 11 0;
#X connect 14 0 32 0;
#X connect 14 1 7 0;
#X connect 15 0 32 0;
#X connect 15 1 1 0;
#X connect 16 0 32 0;
#X connect 16 1 8 0;
#X connect 17 0 11 1;
#X connect 18 0 14 0;
#X connect 18 1 15 0;
#X connect 18 2 16 0;
#X connect 18 3 17 0;
#X connect 19 0 20 0;
#X connect 20 0 19 1;
#X connect 20 0 28 0;
#X connect 21 0 19 0;
#X connect 22 0 31 0;
#X connect 22 1 9 0;
#X connect 23 0 31 0;
#X connect 23 1 4 0;
#X connect 24 0 31 0;
#X connect 24 1 6 0;
#X connect 25 0 19 1;
#X connect 27 0 42 0;
#X connect 28 0 22 0;
#X connect 28 1 23 0;
#X connect 28 2 24 0;
#X connect 28 3 29 0;
#X connect 28 4 25 0;
#X connect 29 0 31 0;
#X connect 29 1 5 0;
#X connect 30 0 3 0;
#X connect 33 0 36 0;
#X connect 34 0 38 0;
#X connect 35 0 42 1;
#X connect 36 0 38 0;
#X connect 36 1 37 0;
#X connect 36 2 35 0;
#X connect 37 0 38 1;
#X connect 38 0 21 0;
#X connect 39 0 38 1;
#X connect 40 0 42 0;
#X connect 40 1 41 0;
#X connect 40 2 39 0;
#X connect 41 0 42 1;
#X connect 42 0 13 0;
#X connect 44 0 45 1;
#X connect 45 0 46 0;
#X connect 45 1 47 0;
#X connect 45 2 49 0;
#X connect 45 3 50 0;
#X connect 48 0 45 0;
#X connect 52 0 53 0;
#X restore 209 167 pd samples;
#X obj 46 33 loadbang;
#X msg 46 57 1;
#X obj 46 80 tgl 15 0 empty empty empty 17 7 0 10 -262144 -1 -1 1 1
;
#X msg 46 102 \; pd dsp \$1;
#X obj 316 48 tgl 30 0 empty empty empty 17 7 0 10 -257985 -1 -1 1
1;
#X obj 320 161 HotSpot-A 0;
#X obj 107 180 env~;
#X obj 107 199 s VolOut;
#N canvas 784 138 453 477 DetSilence 0;
#X obj 67 13 r VolOut;
#X obj 34 71 sel 0;
#X obj 40 209 line;
#X obj 35 113 bng 15 250 50 0 empty empty empty 17 7 0 10 -262144 -1
-1;
#X floatatom 46 235 5 0 0 0 - - -, f 5;
#X floatatom 140 143 5 0 0 0 - - -, f 5;
#X text 193 19 you need to detect a 5min silence;
#X obj 55 258 sel 1;
#X obj 143 248 == 0;
#X obj 109 279 f;
#X text 191 110 detect VolOut 0 \, start the lin \, e \; after X sec
see if VolOut is still 0 \; if yes send Over;
#X obj 111 308 sel 1;
#X obj 111 334 bng 15 250 50 0 empty empty empty 17 7 0 10 -262144
-1 -1;
#X msg 70 177 0;
#X obj 35 141 t b b;
#X obj 79 139 bng 15 250 50 0 empty empty empty 17 7 0 10 -262144 -1
-1;
#X obj 67 40 change;
#X msg 12 177 1 10000;
#X obj 114 365 s over-silence;
#X connect 0 0 16 0;
#X connect 1 0 3 0;
#X connect 2 0 4 0;
#X connect 3 0 14 0;
#X connect 4 0 7 0;
#X connect 5 0 8 0;
#X connect 7 0 9 0;
#X connect 8 0 9 1;
#X connect 9 0 11 0;
#X connect 11 0 12 0;
#X connect 12 0 18 0;
#X connect 13 0 2 0;
#X connect 14 0 17 0;
#X connect 14 1 13 0;
#X connect 15 0 14 0;
#X connect 16 0 1 0;
#X connect 16 0 5 0;
#X connect 17 0 2 0;
#X restore 49 227 pd DetSilence;
#N canvas 442 180 848 456 netlink2video 0;
#X obj 38 33 netreceive 8900;
#X obj 25 110 s bangSample0;
#X obj 23 137 s bangSample1;
#X obj 32 166 s bangSample2;
#X obj 31 201 s bangSample3;
#X obj 122 122 s defBang;
#X obj 133 150 s defSampN;
#X obj 197 123 s start;
#X obj 203 146 s over;
#X obj 436 371 netsend;
#X msg 436 92 connect localhost 8901;
#X msg 449 122 disconnect;
#X obj 471 154 r VolIn;
#X msg 472 178 send /VolIn \$1;
#X obj 438 12 inlet;
#X obj 434 36 tgl 15 0 empty empty empty 17 7 0 10 -262144 -1 -1 1
1;
#X obj 438 60 sel 1 0;
#X obj 608 103 r 0-bolaOn;
#X msg 609 127 send /0-bolaOn \$1;
#X obj 612 151 r 1-bolaOn;
#X msg 613 175 send /1-bolaOn \$1;
#X obj 615 202 r 2-bolaOn;
#X msg 616 226 send /2-bolaOn \$1;
#X obj 618 253 r 3-bolaOn;
#X msg 619 277 send /3-bolaOn \$1;
#X obj 436 413 outlet;
#X obj 626 315 r over-silence;
#X msg 627 339 send /over-silence;
#X obj 257 127 s 0-grava;
#X obj 270 157 s 1-grava;
#X obj 282 182 s 2-grava;
#X obj 293 206 s 3-grava;
#X obj 38 63 route /bangSample0 /bangSample1 /bangSample2 /bangSample3
/defBang /defSampN /start /over-sound /0-grava /1-grava /2-grava /3-grava
/clear;
#X connect 0 0 32 0;
#X connect 9 0 25 0;
#X connect 10 0 9 0;
#X connect 11 0 9 0;
#X connect 12 0 13 0;
#X connect 13 0 9 0;
#X connect 14 0 15 0;
#X connect 15 0 16 0;
#X connect 16 0 10 0;
#X connect 16 1 11 0;
#X connect 17 0 18 0;
#X connect 18 0 9 0;
#X connect 19 0 20 0;
#X connect 20 0 9 0;
#X connect 21 0 22 0;
#X connect 22 0 9 0;
#X connect 23 0 24 0;
#X connect 24 0 9 0;
#X connect 26 0 27 0;
#X connect 27 0 9 0;
#X connect 32 0 1 0;
#X connect 32 1 2 0;
#X connect 32 2 3 0;
#X connect 32 3 4 0;
#X connect 32 4 5 0;
#X connect 32 5 6 0;
#X connect 32 6 7 0;
#X connect 32 7 8 0;
#X connect 32 8 28 0;
#X connect 32 9 29 0;
#X connect 32 10 30 0;
#X connect 32 11 31 0;
#X restore 316 87 pd netlink2video;
#X obj 82 58 s init;
#X obj 378 13 r init;
#X msg 366 62 1;
#X obj 360 39 delay 2000;
#X obj 316 114 tgl 15 0 empty empty empty 17 7 0 10 -262144 -1 -1 1
1;
#X msg 437 36 \; defBang;
#X obj 417 199 HotSpot-A 3;
#X obj 416 162 HotSpot-A 1;
#X obj 321 198 HotSpot-A 2;
#X connect 1 0 2 0;
#X connect 1 0 7 0;
#X connect 1 1 2 0;
#X connect 1 1 7 0;
#X connect 4 0 3 0;
#X connect 4 0 3 1;
#X connect 4 0 16 0;
#X connect 7 0 8 0;
#X connect 10 0 11 0;
#X connect 10 0 20 0;
#X connect 11 0 12 0;
#X connect 12 0 13 0;
#X connect 14 0 19 0;
#X connect 16 0 17 0;
#X connect 19 0 24 0;
#X connect 21 0 23 0;
#X connect 21 0 25 0;
#X connect 22 0 14 0;
#X connect 23 0 22 0;
