#N canvas 857 219 454 381 10;
#X msg 38 170 start;
#X msg 87 168 stop;
#X obj 58 104 sel 1 0;
#X obj 245 177 t b b b;
#X msg 250 231 0;
#X obj 284 265 spigot;
#X msg 218 231 1;
#X obj 208 205 delay;
#X obj 178 149 demux - -;
#X obj 230 106 r full_sample;
#X obj 58 81 r \$1-grava;
#X obj 290 208 r \$1-sample_size_msec;
#X obj 14 216 tabwrite~ \$1-sample;
#X obj 185 298 tabplay~ \$1-sample;
#X msg 320 323 \; \$1-bolaOn 0;
#X obj 319 298 f \$1;
#N canvas 1 55 450 300 sample_stuff 0;
#X obj 74 30 bng 15 250 50 0 empty empty empty 17 7 0 10 -262144 -1
-1;
#X obj 157 47 t b b;
#X obj 157 23 bng 15 250 50 0 empty empty empty 17 7 0 10 -262144 -1
-1;
#X obj 118 146 timer;
#X obj 199 177 * 44.1;
#X obj 297 168 samplerate~;
#X obj 297 192 / 1000;
#X obj 79 48 t b b b;
#X obj 278 143 loadbang;
#X obj 258 144 bng 15 250 50 0 empty empty empty 17 7 0 10 -262144
-1 -1;
#X obj 59 255 s \$1-sample_size_msec;
#X msg 193 102 \; \$1-sample resize 4.8e+06;
#X obj 193 79 f \$1;
#X obj 242 203 f \$1;
#X obj 209 229 pack f f;
#X msg 208 253 \; \$2-sample resize \$1;
#X floatatom 310 230 5 0 0 0 - - -, f 5;
#X obj 56 6 inlet;
#X obj 115 5 inlet;
#X obj 69 103 outlet;
#X obj 20 103 outlet;
#X connect 0 0 7 0;
#X connect 1 0 19 0;
#X connect 1 1 3 1;
#X connect 2 0 1 0;
#X connect 3 0 4 0;
#X connect 3 0 10 0;
#X connect 4 0 14 0;
#X connect 5 0 6 0;
#X connect 6 0 4 1;
#X connect 7 0 20 0;
#X connect 7 1 3 0;
#X connect 7 2 12 0;
#X connect 8 0 5 0;
#X connect 8 0 13 0;
#X connect 9 0 5 0;
#X connect 12 0 11 0;
#X connect 13 0 14 1;
#X connect 14 0 15 0;
#X connect 16 0 4 0;
#X connect 17 0 0 0;
#X connect 18 0 2 0;
#X restore 41 125 pd sample_stuff;
#X obj 18 36 r~ InputSound;
#X obj 186 322 throw~ SoundOut;
#X obj 180 61 r bangSample\$1;
#X obj 37 265 r clear;
#X obj 40 295 f \$1;
#X msg 20 323 \; \$1-sample const 0;
#X connect 0 0 12 0;
#X connect 1 0 12 0;
#X connect 2 0 16 0;
#X connect 2 1 16 1;
#X connect 3 0 7 0;
#X connect 3 1 4 0;
#X connect 3 2 5 0;
#X connect 4 0 5 1;
#X connect 5 0 13 0;
#X connect 6 0 5 1;
#X connect 7 0 6 0;
#X connect 8 0 13 0;
#X connect 8 1 3 0;
#X connect 9 0 8 1;
#X connect 10 0 2 0;
#X connect 11 0 7 1;
#X connect 13 0 18 0;
#X connect 13 1 15 0;
#X connect 15 0 14 0;
#X connect 16 0 0 0;
#X connect 16 1 1 0;
#X connect 17 0 12 0;
#X connect 19 0 8 0;
#X connect 20 0 21 0;
#X connect 21 0 22 0;
