#N canvas 411 105 725 482 10;
#X obj 364 76 gemhead 56;
#X msg 358 173 1 1 0;
#X obj 268 439 circle 0.5;
#X obj 38 161 pix_data;
#X obj 25 215 ColorDistance;
#X obj 100 192 spigot;
#X obj 42 192 t a a;
#X obj 24 259 > 0.1;
#X obj 53 7 r IMAGE;
#X obj 107 166 r STORE;
#X obj 53 238 r THR;
#X obj 168 224 translateXYZ;
#X obj 141 106 gemhead 55;
#X obj 172 332 square 0.1;
#X msg 248 250 draw line;
#X obj 258 227 r init;
#X obj 331 253 translateXYZ;
#X obj 141 128 t b a;
#X msg 195 166 1 0 1;
#X obj 448 18 r show_spot;
#X obj 448 77 gemhead 56;
#X obj 442 157 translateXYZ;
#X obj 169 275 rotateXYZ 0 0 45;
#X obj 454 234 square 0.1;
#X obj 455 207 color 1 0 0;
#X obj 25 313 sel 1 0;
#X obj 24 283 change;
#X msg 90 438 \; \$1-bolaOn 1;
#X msg 172 444 \; \$1-bolaOn 0;
#X obj 364 18 r \$1-bolaOn;
#X obj 158 419 f \$1;
#X obj 79 417 f \$1;
#X obj 590 14 loadbang;
#X msg 594 59 \; \$1-bolaOn 0 \;;
#X obj 592 38 f \$1;
#X obj 112 8 r \$1-X;
#X obj 155 8 r \$1-Y;
#X obj 148 82 r showSq;
#X obj 240 73 * 10;
#X obj 241 104 - 5;
#X obj 294 73 * 7.6;
#X obj 284 104 - 3.8;
#X obj 421 282 tgl 15 0 empty empty empty 17 7 0 10 -262144 -1 -1 1
1;
#X obj 323 278 demux . .;
#X obj 460 368 f \$1;
#X obj 405 433 text3d;
#X msg 436 393 text \$1;
#X obj 499 314 r init;
#X floatatom 449 289 5 0 0 0 - - -, f 5;
#X obj 429 262 r textOn;
#X obj 168 197 color 1 0 1;
#X obj 340 205 color 1 1 0;
#X obj 321 378 line;
#X obj 290 301 t a b b;
#X obj 85 281 print \$1;
#X msg 342 355 0.5;
#X msg 298 354 0 300;
#X obj 19 347 t b b b;
#N canvas 1 56 450 300 dollarsigns_theory 0;
#X obj 70 134 r clear;
#X msg 126 25 bang;
#X obj 144 59 f \$0;
#X floatatom 146 85 5 0 0 0 - - -, f 5;
#X floatatom 104 86 5 0 0 0 - - -, f 5;
#X obj 106 58 f \$1;
#X msg 61 197 \; \$1-sample const 0;
#X obj 70 161 f \$1;
#X text 221 120 \$1 in the object \; = arg of the abs \;;
#X text 212 155 \$1 in the message \; = arg of the incoming value \;
;
#X connect 0 0 7 0;
#X connect 1 0 2 0;
#X connect 1 0 5 0;
#X connect 2 0 3 0;
#X connect 5 0 4 0;
#X connect 7 0 6 0;
#X restore 557 106 pd dollarsigns_theory;
#X obj 39 374 s bangSample\$1;
#X floatatom 571 187 5 0 0 0 - - -, f 5;
#X obj 444 312 sel 1;
#X obj 480 341 t b b;
#X obj 12 398 bng 15 250 50 0 empty empty empty 17 7 0 10 -262144 -1
-1;
#X msg 492 404 10;
#X connect 0 0 51 0;
#X connect 1 0 51 1;
#X connect 3 1 6 0;
#X connect 4 0 7 0;
#X connect 5 0 4 1;
#X connect 6 0 4 0;
#X connect 6 1 5 0;
#X connect 7 0 26 0;
#X connect 8 0 3 1;
#X connect 9 0 5 1;
#X connect 10 0 7 1;
#X connect 11 0 22 0;
#X connect 12 0 17 0;
#X connect 14 0 13 0;
#X connect 15 0 14 0;
#X connect 16 0 43 0;
#X connect 17 0 3 0;
#X connect 17 1 50 0;
#X connect 18 0 50 1;
#X connect 19 0 20 0;
#X connect 20 0 21 0;
#X connect 21 0 24 0;
#X connect 22 0 13 0;
#X connect 24 0 23 0;
#X connect 25 0 57 0;
#X connect 25 1 30 0;
#X connect 26 0 25 0;
#X connect 29 0 0 0;
#X connect 30 0 28 0;
#X connect 31 0 27 0;
#X connect 32 0 34 0;
#X connect 34 0 33 0;
#X connect 35 0 3 2;
#X connect 35 0 38 0;
#X connect 36 0 3 3;
#X connect 36 0 40 0;
#X connect 37 0 12 0;
#X connect 38 0 39 0;
#X connect 39 0 11 1;
#X connect 39 0 16 1;
#X connect 39 0 21 1;
#X connect 40 0 41 0;
#X connect 41 0 11 2;
#X connect 41 0 16 2;
#X connect 41 0 21 2;
#X connect 42 0 43 1;
#X connect 42 0 61 0;
#X connect 43 0 53 0;
#X connect 43 1 45 0;
#X connect 44 0 46 0;
#X connect 46 0 45 0;
#X connect 47 0 62 0;
#X connect 49 0 42 0;
#X connect 49 0 48 0;
#X connect 50 0 11 0;
#X connect 51 0 16 0;
#X connect 52 0 2 1;
#X connect 53 0 2 0;
#X connect 53 1 56 0;
#X connect 53 2 55 0;
#X connect 55 0 52 0;
#X connect 56 0 52 0;
#X connect 57 0 63 0;
#X connect 57 1 59 0;
#X connect 57 2 31 0;
#X connect 60 0 21 3;
#X connect 61 0 62 0;
#X connect 62 0 44 0;
#X connect 62 1 64 0;
#X connect 64 0 45 1;
